# This file uses centimeters as units for non-parametric coordinates.

mtllib 3004.mtl
g default
v 0.461485 0.000032 0.148438
v 0.513609 0.000032 0.113609
v 0.548437 0.000032 0.061485
v 0.560668 0.000032 0.000000
v 0.548438 0.000032 -0.061485
v 0.513609 0.000032 -0.113609
v 0.461485 0.000032 -0.148438
v 0.400000 0.000032 -0.160668
v 0.338515 0.000032 -0.148438
v 0.286391 0.000032 -0.113609
v 0.251562 0.000032 -0.061485
v 0.239332 0.000032 0.000000
v 0.251562 0.000032 0.061485
v 0.286391 0.000032 0.113609
v 0.338515 0.000032 0.148438
v 0.400000 0.000032 0.160668
v 0.461485 0.819827 0.148438
v 0.513609 0.819827 0.113609
v 0.548437 0.819827 0.061485
v 0.560668 0.819827 0.000000
v 0.548438 0.819827 -0.061485
v 0.513609 0.819827 -0.113609
v 0.461485 0.819827 -0.148438
v 0.400000 0.819827 -0.160668
v 0.338515 0.819827 -0.148438
v 0.286391 0.819827 -0.113609
v 0.251562 0.819827 -0.061485
v 0.239332 0.819827 0.000000
v 0.251562 0.819827 0.061485
v 0.286391 0.819827 0.113609
v 0.338515 0.819827 0.148438
v 0.400000 0.819827 0.160668
v 0.400000 0.000032 0.000000
v 1.200000 0.960032 0.400000
v -0.400000 0.960032 0.400000
v 1.200000 0.000032 0.400000
v -0.400000 0.000032 0.400000
v 1.040000 0.800032 0.240000
v -0.240000 0.800032 0.240000
v 1.040000 0.000032 0.240000
v -0.240000 0.000032 0.240000
v 1.040000 0.800032 -0.240000
v -0.240000 0.800032 -0.240000
v 1.040000 0.000032 -0.240000
v -0.240000 0.000032 -0.240000
v 1.200000 0.960032 -0.400000
v -0.400000 0.960032 -0.400000
v 1.200000 0.000032 -0.400000
v -0.400000 0.000032 -0.400000
v -0.241899 1.120034 0.000000
v -0.223485 1.120034 0.092571
v 0.000000 1.120032 0.000000
v -0.171048 1.120034 0.171048
v -0.092571 1.120034 0.223485
v 0.000000 1.120034 0.241899
v 0.092571 1.120034 0.223485
v 0.171048 1.120034 0.171048
v 0.223485 1.120034 0.092571
v 0.241899 1.120034 0.000000
v 0.223485 1.120034 -0.092571
v 0.171048 1.120034 -0.171048
v 0.092570 1.120034 -0.223485
v 0.000000 1.120034 -0.241899
v -0.092571 1.120034 -0.223485
v -0.171048 1.120034 -0.171048
v -0.223485 1.120034 -0.092571
v -0.223485 0.930810 -0.092571
v -0.241899 0.930810 0.000000
v -0.171048 0.930810 -0.171048
v -0.092571 0.930810 -0.223485
v 0.000000 0.930810 -0.241899
v 0.092570 0.930810 -0.223485
v 0.171048 0.930810 -0.171048
v 0.223485 0.930810 -0.092571
v 0.241899 0.930810 0.000000
v 0.223485 0.930810 0.092571
v 0.171048 0.930810 0.171048
v 0.092571 0.930810 0.223485
v 0.000000 0.930810 0.241899
v -0.092571 0.930810 0.223485
v -0.171048 0.930810 0.171048
v -0.223485 0.930810 0.092571
v 0.558101 1.120034 0.000000
v 0.576515 1.120034 0.092571
v 0.800000 1.120032 0.000000
v 0.628952 1.120034 0.171048
v 0.707429 1.120034 0.223485
v 0.800000 1.120034 0.241899
v 0.892571 1.120034 0.223485
v 0.971048 1.120034 0.171048
v 1.023485 1.120034 0.092571
v 1.041899 1.120034 0.000000
v 1.023485 1.120034 -0.092571
v 0.971048 1.120034 -0.171048
v 0.892570 1.120034 -0.223485
v 0.800000 1.120034 -0.241899
v 0.707429 1.120034 -0.223485
v 0.628952 1.120034 -0.171048
v 0.576515 1.120034 -0.092571
v 0.576515 0.930810 -0.092571
v 0.558101 0.930810 0.000000
v 0.628952 0.930810 -0.171048
v 0.707429 0.930810 -0.223485
v 0.800000 0.930810 -0.241899
v 0.892570 0.930810 -0.223485
v 0.971048 0.930810 -0.171048
v 1.023485 0.930810 -0.092571
v 1.041899 0.930810 0.000000
v 1.023485 0.930810 0.092571
v 0.971048 0.930810 0.171048
v 0.892571 0.930810 0.223485
v 0.800000 0.930810 0.241899
v 0.707429 0.930810 0.223485
v 0.628952 0.930810 0.171048
v 0.576515 0.930810 0.092571
vt 0.714240 0.736390
vt 0.695756 0.708993
vt 0.668195 0.690756
vt 0.635752 0.684455
vt 0.603368 0.691048
vt 0.575972 0.709532
vt 0.557735 0.737094
vt 0.551433 0.769536
vt 0.558026 0.801920
vt 0.576511 0.829317
vt 0.604072 0.847554
vt 0.636514 0.853855
vt 0.668899 0.847262
vt 0.696295 0.828778
vt 0.714532 0.801216
vt 0.720834 0.768774
vt 0.041615 0.772922
vt 0.070278 0.772922
vt 0.098941 0.772922
vt 0.127603 0.772922
vt 0.156266 0.772921
vt 0.184929 0.772921
vt 0.213592 0.772921
vt 0.242255 0.772921
vt 0.270918 0.772921
vt 0.299580 0.772920
vt 0.328243 0.772920
vt 0.356906 0.772920
vt 0.385569 0.772920
vt 0.414232 0.772920
vt 0.442894 0.772919
vt 0.471557 0.772919
vt 0.500220 0.772919
vt 0.041615 0.833145
vt 0.070278 0.833144
vt 0.098941 0.833144
vt 0.127604 0.833144
vt 0.156267 0.833144
vt 0.184930 0.833144
vt 0.213592 0.833143
vt 0.242255 0.833143
vt 0.270918 0.833143
vt 0.299581 0.833143
vt 0.328244 0.833143
vt 0.356906 0.833142
vt 0.385569 0.833142
vt 0.414232 0.833142
vt 0.442895 0.833142
vt 0.471558 0.833142
vt 0.500221 0.833141
vt 0.636133 0.769155
vt 0.525723 0.395825
vt 0.451710 0.280313
vt 0.772527 0.280329
vt 0.844322 0.395842
vt 0.954014 0.278118
vt 0.024829 0.395801
vt 0.271633 0.286597
vt 0.342018 0.395817
vt 0.871754 0.141001
vt 0.553155 0.143203
vt 0.369450 0.143195
vt 0.052261 0.149471
vt 0.299044 0.601251
vt 0.525713 0.560361
vt 0.024819 0.601234
vt 0.024811 0.738347
vt 0.844312 0.560377
vt 0.299036 0.738363
vt 0.369442 0.314914
vt 0.052253 0.318044
vt 0.954022 0.141006
vt 0.047126 0.032786
vt 0.266506 0.032799
vt 0.266501 0.115067
vt 0.553147 0.314922
vt 0.451718 0.143200
vt 0.772536 0.143216
vt 0.871746 0.312720
vt 0.981425 0.560385
vt 0.981435 0.340149
vt 0.799939 0.560377
vt 0.479121 0.560361
vt 0.024819 0.560336
vt 0.844322 0.340141
vt 0.799948 0.342359
vt 0.799948 0.395842
vt 0.342008 0.560352
vt 0.299044 0.560352
vt 0.024829 0.345465
vt 0.981435 0.395850
vt 0.525723 0.342343
vt 0.479131 0.342343
vt 0.479131 0.395825
vt 0.342018 0.342335
vt 0.299054 0.345481
vt 0.299054 0.395817
vt 0.271641 0.149484
vt 0.271633 0.318057
vt 0.369442 0.280308
vt 0.047121 0.115054
vt 0.954014 0.312725
vt 0.052253 0.286584
vt 0.451710 0.314919
vt 0.553147 0.280316
vt 0.772527 0.314935
vt 0.871746 0.278114
vt 0.854975 0.768410
vt 0.893372 0.776236
vt 0.854500 0.868841
vt 0.925852 0.798162
vt 0.947469 0.830847
vt 0.954931 0.869316
vt 0.947105 0.907714
vt 0.925179 0.940193
vt 0.892494 0.961810
vt 0.854024 0.969273
vt 0.815628 0.961446
vt 0.783149 0.939521
vt 0.761531 0.906835
vt 0.754069 0.868366
vt 0.761895 0.829969
vt 0.783821 0.797489
vt 0.816506 0.775872
vt 0.333955 0.966179
vt 0.333961 0.887580
vt 0.374402 0.887583
vt 0.374396 0.966182
vt 0.293514 0.966176
vt 0.293520 0.887577
vt 0.253073 0.966173
vt 0.253078 0.887574
vt 0.212631 0.966170
vt 0.212637 0.887571
vt 0.172190 0.966167
vt 0.172196 0.887567
vt 0.131749 0.966164
vt 0.131755 0.887564
vt 0.091308 0.966161
vt 0.091314 0.887561
vt 0.050867 0.966157
vt 0.050873 0.887558
vt 0.657484 0.966204
vt 0.657490 0.887604
vt 0.697931 0.887608
vt 0.697925 0.966207
vt 0.617043 0.966201
vt 0.617049 0.887601
vt 0.576602 0.966198
vt 0.576607 0.887598
vt 0.536160 0.966194
vt 0.536166 0.887595
vt 0.495719 0.966191
vt 0.495725 0.887592
vt 0.455278 0.966188
vt 0.455284 0.887589
vt 0.414837 0.966185
vt 0.414843 0.887586
vt 0.854975 0.768410
vt 0.893372 0.776236
vt 0.854500 0.868841
vt 0.925852 0.798162
vt 0.947469 0.830847
vt 0.954931 0.869316
vt 0.947105 0.907714
vt 0.925179 0.940193
vt 0.892494 0.961810
vt 0.854024 0.969273
vt 0.815628 0.961446
vt 0.783148 0.939521
vt 0.761531 0.906835
vt 0.754069 0.868366
vt 0.761895 0.829969
vt 0.783821 0.797489
vt 0.816506 0.775872
vt 0.333955 0.966179
vt 0.333961 0.887580
vt 0.374402 0.887583
vt 0.374396 0.966182
vt 0.293514 0.966176
vt 0.293520 0.887577
vt 0.253073 0.966173
vt 0.253078 0.887574
vt 0.212631 0.966170
vt 0.212637 0.887571
vt 0.172190 0.966167
vt 0.172196 0.887567
vt 0.131749 0.966164
vt 0.131755 0.887564
vt 0.091308 0.966161
vt 0.091314 0.887561
vt 0.050867 0.966157
vt 0.050873 0.887558
vt 0.657484 0.966204
vt 0.657490 0.887604
vt 0.697931 0.887608
vt 0.697925 0.966207
vt 0.617043 0.966201
vt 0.617049 0.887601
vt 0.576602 0.966198
vt 0.576607 0.887598
vt 0.536160 0.966194
vt 0.536166 0.887595
vt 0.495719 0.966191
vt 0.495725 0.887592
vt 0.455278 0.966188
vt 0.455284 0.887589
vt 0.414837 0.966185
vt 0.414843 0.887586
vn 0.382683 0.000000 0.923880
vn 0.707109 0.000000 0.707105
vn 0.707109 0.000000 0.707105
vn 0.382683 0.000000 0.923880
vn 0.923879 0.000000 0.382684
vn 0.923879 0.000000 0.382684
vn 1.000000 0.000000 0.000004
vn 1.000000 0.000000 0.000004
vn 0.923880 0.000000 -0.382683
vn 0.923880 0.000000 -0.382683
vn 0.707106 0.000000 -0.707108
vn 0.707106 0.000000 -0.707108
vn 0.382684 0.000000 -0.923879
vn 0.382684 0.000000 -0.923879
vn 0.000000 0.000000 -1.000000
vn 0.000000 0.000000 -1.000000
vn -0.382683 0.000000 -0.923880
vn -0.382683 0.000000 -0.923880
vn -0.707107 0.000000 -0.707107
vn -0.707107 0.000000 -0.707107
vn -0.923879 0.000000 -0.382684
vn -0.923879 0.000000 -0.382684
vn -1.000000 0.000000 0.000000
vn -1.000000 0.000000 0.000000
vn -0.923879 0.000000 0.382685
vn -0.923879 0.000000 0.382685
vn -0.707107 0.000000 0.707107
vn -0.707107 0.000000 0.707107
vn -0.382685 0.000000 0.923879
vn -0.382685 0.000000 0.923879
vn -0.000002 0.000000 1.000000
vn -0.000002 0.000000 1.000000
vn 0.000000 -1.000000 0.000000
vn 0.000000 -1.000000 -0.000000
vn 0.000000 -1.000000 -0.000000
vn 0.000000 -1.000000 0.000000
vn 0.000000 -1.000000 -0.000000
vn 0.000000 -1.000000 0.000000
vn 0.000000 -1.000000 0.000000
vn 0.000000 -1.000000 0.000000
vn 0.000000 -1.000000 0.000000
vn 0.000000 -1.000000 0.000000
vn 0.000000 -1.000000 0.000000
vn 0.000000 -1.000000 0.000000
vn 0.000000 -1.000000 0.000000
vn 0.000000 -1.000000 0.000000
vn 0.000000 -1.000000 0.000000
vn 0.000000 -1.000000 -0.000000
vn 0.000000 -1.000000 0.000000
vn 0.000000 -1.000000 -0.000000
vn 0.000000 -1.000000 -0.000000
vn 0.000000 -1.000000 -0.000000
vn 0.000000 -1.000000 -0.000000
vn 0.000000 -1.000000 0.000000
vn 0.000000 -1.000000 0.000000
vn 0.000000 -1.000000 0.000000
vn 0.000000 -1.000000 0.000000
vn 0.000000 -1.000000 0.000000
vn 0.000000 -1.000000 0.000000
vn 0.000000 -1.000000 0.000000
vn 0.000000 -1.000000 0.000000
vn 0.000000 -1.000000 0.000000
vn 0.000000 -1.000000 0.000000
vn 0.000000 -1.000000 0.000000
vn 0.000000 -1.000000 0.000000
vn 0.000000 -1.000000 0.000000
vn 0.000000 -1.000000 0.000000
vn 0.000000 -1.000000 0.000000
vn 0.000000 -1.000000 0.000000
vn -0.000000 0.000000 1.000000
vn -0.000000 0.000000 1.000000
vn -0.000000 0.000000 1.000000
vn -0.000000 0.000000 1.000000
vn 1.000000 0.000000 0.000000
vn 1.000000 0.000000 0.000000
vn 1.000000 0.000000 0.000000
vn 1.000000 0.000000 0.000000
vn -0.000000 0.000000 -1.000000
vn -0.000000 0.000000 -1.000000
vn -0.000000 0.000000 -1.000000
vn -0.000000 0.000000 -1.000000
vn -1.000000 0.000000 0.000000
vn -1.000000 0.000000 0.000000
vn -1.000000 0.000000 0.000000
vn -1.000000 0.000000 0.000000
vn 1.000000 0.000000 0.000000
vn 1.000000 0.000000 0.000000
vn 1.000000 0.000000 0.000000
vn 1.000000 0.000000 0.000000
vn 0.000000 0.000000 1.000000
vn 0.000000 0.000000 1.000000
vn 0.000000 0.000000 1.000000
vn 0.000000 0.000000 1.000000
vn -1.000000 0.000000 -0.000000
vn -1.000000 0.000000 -0.000000
vn -1.000000 0.000000 -0.000000
vn -1.000000 0.000000 -0.000000
vn 0.000000 0.000000 -1.000000
vn 0.000000 0.000000 -1.000000
vn 0.000000 0.000000 -1.000000
vn 0.000000 0.000000 -1.000000
vn 0.000000 1.000000 -0.000000
vn 0.000000 1.000000 -0.000000
vn 0.000000 1.000000 -0.000000
vn 0.000000 1.000000 -0.000000
vn 0.000008 1.000000 -0.000000
vn 0.000007 1.000000 -0.000003
vn 0.000000 1.000000 0.000000
vn 0.000007 1.000000 -0.000003
vn 0.000004 1.000000 -0.000006
vn 0.000000 1.000000 0.000000
vn 0.000000 1.000000 0.000000
vn 0.000003 1.000000 -0.000007
vn -0.000000 1.000000 -0.000008
vn 0.000000 1.000000 0.000000
vn -0.000003 1.000000 -0.000007
vn -0.000005 1.000000 -0.000006
vn -0.000005 1.000000 -0.000006
vn -0.000007 1.000000 -0.000003
vn 0.000000 1.000000 0.000000
vn 0.000000 1.000000 0.000000
vn -0.000007 1.000000 -0.000003
vn -0.000008 1.000000 0.000000
vn -0.000007 1.000000 0.000003
vn -0.000005 1.000000 0.000006
vn 0.000000 1.000000 0.000000
vn 0.000000 1.000000 0.000000
vn -0.000005 1.000000 0.000006
vn -0.000003 1.000000 0.000007
vn 0.000000 1.000000 0.000000
vn 0.000000 1.000000 0.000008
vn 0.000004 1.000000 0.000007
vn 0.000006 1.000000 0.000006
vn 0.000007 1.000000 0.000003
vn 0.000000 1.000000 0.000000
vn -0.923879 0.000000 -0.382684
vn -0.923879 0.000000 -0.382684
vn -1.000000 0.000000 0.000000
vn -1.000000 0.000000 0.000000
vn -0.707107 0.000000 -0.707106
vn -0.707107 0.000000 -0.707106
vn -0.923879 0.000000 -0.382684
vn -0.923879 0.000000 -0.382684
vn -0.382683 0.000000 -0.923880
vn -0.382683 0.000000 -0.923880
vn -0.707107 0.000000 -0.707106
vn -0.707107 0.000000 -0.707106
vn -0.000000 0.000000 -1.000000
vn -0.000000 0.000000 -1.000000
vn -0.382683 0.000000 -0.923880
vn -0.382683 0.000000 -0.923880
vn 0.382683 0.000000 -0.923880
vn 0.382683 0.000000 -0.923880
vn -0.000000 0.000000 -1.000000
vn -0.000000 0.000000 -1.000000
vn 0.707107 0.000000 -0.707106
vn 0.707107 0.000000 -0.707106
vn 0.382683 0.000000 -0.923880
vn 0.382683 0.000000 -0.923880
vn 0.923879 0.000000 -0.382684
vn 0.923879 0.000000 -0.382684
vn 0.707107 0.000000 -0.707106
vn 0.707107 0.000000 -0.707106
vn 1.000000 0.000000 -0.000000
vn 1.000000 0.000000 -0.000000
vn 0.923879 0.000000 -0.382684
vn 0.923879 0.000000 -0.382684
vn 0.923879 0.000000 0.382684
vn 0.923879 0.000000 0.382684
vn 1.000000 0.000000 -0.000000
vn 1.000000 0.000000 -0.000000
vn 0.707108 0.000000 0.707106
vn 0.707108 0.000000 0.707106
vn 0.923879 0.000000 0.382684
vn 0.923879 0.000000 0.382684
vn 0.382684 0.000000 0.923879
vn 0.382684 0.000000 0.923879
vn 0.707108 0.000000 0.707106
vn 0.707108 0.000000 0.707106
vn 0.000000 0.000000 1.000000
vn 0.000000 0.000000 1.000000
vn 0.382684 0.000000 0.923879
vn 0.382684 0.000000 0.923879
vn -0.382684 0.000000 0.923879
vn -0.382684 0.000000 0.923879
vn 0.000000 0.000000 1.000000
vn 0.000000 0.000000 1.000000
vn -0.707107 0.000000 0.707106
vn -0.707107 0.000000 0.707106
vn -0.382684 0.000000 0.923879
vn -0.382684 0.000000 0.923879
vn -0.923879 0.000000 0.382684
vn -0.923879 0.000000 0.382684
vn -0.707107 0.000000 0.707106
vn -0.707107 0.000000 0.707106
vn -1.000000 0.000000 0.000000
vn -1.000000 0.000000 0.000000
vn -0.923879 0.000000 0.382684
vn -0.923879 0.000000 0.382684
vn 0.000000 1.000000 0.000000
vn 0.000004 1.000000 0.000007
vn 0.000006 1.000000 0.000006
vn 0.000000 1.000000 0.000000
vn -0.000000 1.000000 -0.000008
vn -0.000003 1.000000 -0.000007
vn 0.000000 1.000000 0.000000
vn -0.000008 1.000000 0.000000
vn -0.000007 1.000000 0.000003
vn 0.000008 1.000000 -0.000000
vn 0.000000 1.000000 0.000000
vn 0.000007 1.000000 0.000003
vn 0.000000 1.000000 0.000000
vn -0.000003 1.000000 0.000007
vn 0.000000 1.000000 0.000008
vn 0.000000 1.000000 0.000000
vn 0.000004 1.000000 -0.000006
vn 0.000003 1.000000 -0.000007
vn 0.000008 1.000000 -0.000000
vn 0.000007 1.000000 -0.000003
vn 0.000000 1.000000 0.000000
vn 0.000007 1.000000 -0.000003
vn 0.000004 1.000000 -0.000006
vn 0.000000 1.000000 0.000000
vn 0.000000 1.000000 0.000000
vn 0.000003 1.000000 -0.000007
vn -0.000000 1.000000 -0.000008
vn 0.000000 1.000000 0.000000
vn -0.000003 1.000000 -0.000007
vn -0.000005 1.000000 -0.000006
vn -0.000005 1.000000 -0.000006
vn -0.000007 1.000000 -0.000003
vn 0.000000 1.000000 0.000000
vn 0.000000 1.000000 0.000000
vn -0.000007 1.000000 -0.000003
vn -0.000008 1.000000 0.000000
vn -0.000007 1.000000 0.000003
vn -0.000005 1.000000 0.000006
vn 0.000000 1.000000 0.000000
vn 0.000000 1.000000 0.000000
vn -0.000005 1.000000 0.000006
vn -0.000003 1.000000 0.000007
vn 0.000000 1.000000 0.000000
vn 0.000000 1.000000 0.000008
vn 0.000004 1.000000 0.000007
vn 0.000006 1.000000 0.000006
vn 0.000007 1.000000 0.000003
vn 0.000000 1.000000 0.000000
vn -0.923879 0.000000 -0.382684
vn -0.923879 0.000000 -0.382684
vn -1.000000 0.000000 0.000000
vn -1.000000 0.000000 0.000000
vn -0.707107 0.000000 -0.707106
vn -0.707107 0.000000 -0.707106
vn -0.923879 0.000000 -0.382684
vn -0.923879 0.000000 -0.382684
vn -0.382683 0.000000 -0.923880
vn -0.382683 0.000000 -0.923880
vn -0.707107 0.000000 -0.707106
vn -0.707107 0.000000 -0.707106
vn -0.000000 0.000000 -1.000000
vn -0.000000 0.000000 -1.000000
vn -0.382683 0.000000 -0.923880
vn -0.382683 0.000000 -0.923880
vn 0.382683 0.000000 -0.923880
vn 0.382683 0.000000 -0.923880
vn -0.000000 0.000000 -1.000000
vn -0.000000 0.000000 -1.000000
vn 0.707107 0.000000 -0.707106
vn 0.707107 0.000000 -0.707106
vn 0.382683 0.000000 -0.923880
vn 0.382683 0.000000 -0.923880
vn 0.923879 0.000000 -0.382684
vn 0.923879 0.000000 -0.382684
vn 0.707107 0.000000 -0.707106
vn 0.707107 0.000000 -0.707106
vn 1.000000 0.000000 -0.000000
vn 1.000000 0.000000 -0.000000
vn 0.923879 0.000000 -0.382684
vn 0.923879 0.000000 -0.382684
vn 0.923879 0.000000 0.382684
vn 0.923879 0.000000 0.382684
vn 1.000000 0.000000 -0.000000
vn 1.000000 0.000000 -0.000000
vn 0.707108 0.000000 0.707106
vn 0.707108 0.000000 0.707106
vn 0.923879 0.000000 0.382684
vn 0.923879 0.000000 0.382684
vn 0.382684 0.000000 0.923879
vn 0.382684 0.000000 0.923879
vn 0.707108 0.000000 0.707106
vn 0.707108 0.000000 0.707106
vn 0.000000 0.000000 1.000000
vn 0.000000 0.000000 1.000000
vn 0.382684 0.000000 0.923879
vn 0.382684 0.000000 0.923879
vn -0.382684 0.000000 0.923879
vn -0.382684 0.000000 0.923879
vn 0.000000 0.000000 1.000000
vn 0.000000 0.000000 1.000000
vn -0.707107 0.000000 0.707106
vn -0.707107 0.000000 0.707106
vn -0.382684 0.000000 0.923879
vn -0.382684 0.000000 0.923879
vn -0.923879 0.000000 0.382684
vn -0.923879 0.000000 0.382684
vn -0.707107 0.000000 0.707106
vn -0.707107 0.000000 0.707106
vn -1.000000 0.000000 0.000000
vn -1.000000 0.000000 0.000000
vn -0.923879 0.000000 0.382684
vn -0.923879 0.000000 0.382684
vn 0.000000 1.000000 0.000000
vn 0.000004 1.000000 0.000007
vn 0.000006 1.000000 0.000006
vn 0.000000 1.000000 0.000000
vn -0.000000 1.000000 -0.000008
vn -0.000003 1.000000 -0.000007
vn 0.000000 1.000000 0.000000
vn -0.000008 1.000000 0.000000
vn -0.000007 1.000000 0.000003
vn 0.000008 1.000000 -0.000000
vn 0.000000 1.000000 0.000000
vn 0.000007 1.000000 0.000003
vn 0.000000 1.000000 0.000000
vn -0.000003 1.000000 0.000007
vn 0.000000 1.000000 0.000008
vn 0.000000 1.000000 0.000000
vn 0.000004 1.000000 -0.000006
vn 0.000003 1.000000 -0.000007
s 1
g b3004
usemtl lambert3SG
f 1/17/1 2/18/2 18/35/3 17/34/4
f 2/18/2 3/19/5 19/36/6 18/35/3
f 3/19/5 4/20/7 20/37/8 19/36/6
f 4/20/7 5/21/9 21/38/10 20/37/8
f 5/21/9 6/22/11 22/39/12 21/38/10
f 6/22/11 7/23/13 23/40/14 22/39/12
f 7/23/13 8/24/15 24/41/16 23/40/14
f 8/24/15 9/25/17 25/42/18 24/41/16
f 9/25/17 10/26/19 26/43/20 25/42/18
f 10/26/19 11/27/21 27/44/22 26/43/20
f 11/27/21 12/28/23 28/45/24 27/44/22
f 12/28/23 13/29/25 29/46/26 28/45/24
f 13/29/25 14/30/27 30/47/28 29/46/26
f 14/30/27 15/31/29 31/48/30 30/47/28
f 15/31/29 16/32/31 32/49/32 31/48/30
f 16/32/31 1/33/1 17/50/4 32/49/32
s 2
f 2/2/33 1/1/34 33/51/35
f 3/3/36 2/2/33 33/51/35
f 4/4/37 3/3/36 33/51/35
f 5/5/38 4/4/37 33/51/35
f 6/6/39 5/5/38 33/51/35
f 7/7/40 6/6/39 33/51/35
f 8/8/41 7/7/40 33/51/35
f 9/9/42 8/8/41 33/51/35
f 10/10/43 9/9/42 33/51/35
f 11/11/44 10/10/43 33/51/35
f 12/12/45 11/11/44 33/51/35
f 13/13/46 12/12/45 33/51/35
f 14/14/47 13/13/46 33/51/35
f 15/15/48 14/14/47 33/51/35
f 16/16/49 15/15/48 33/51/35
f 1/1/34 16/16/49 33/51/35
s off
f 48/92/50 44/76/51 45/106/52 49/86/53
f 49/85/54 45/79/55 41/102/56 37/81/57
f 37/90/58 41/71/59 40/99/60 36/96/61
f 36/95/62 40/70/63 44/104/64 48/93/65
f 43/73/66 42/74/67 38/75/68 39/101/69
f 43/78/70 45/54/71 44/105/72 42/61/73
f 39/72/74 41/56/75 45/107/76 43/60/77
f 38/98/78 40/58/79 41/103/80 39/63/81
f 42/77/82 44/53/83 40/100/84 38/62/85
f 34/88/86 36/59/87 48/94/88 46/83/89
f 35/84/90 37/57/91 36/97/92 34/89/93
f 47/68/94 49/55/95 37/91/96 35/80/97
f 46/65/98 48/52/99 49/87/100 47/82/101
f 35/66/102 34/64/103 46/69/104 47/67/105
f 50/108/106 51/109/107 52/110/108
f 51/109/109 53/111/110 52/110/111
f 52/110/112 54/112/113 55/113/114
f 52/110/115 56/114/116 57/115/117
f 57/115/118 58/116/119 52/110/120
f 52/110/121 58/116/122 59/117/123
f 60/118/124 61/119/125 52/110/126
f 52/110/127 61/119/128 62/120/129
f 52/110/130 63/121/131 64/122/132
f 65/123/133 66/124/134 52/110/135
f 66/125/136 67/126/137 68/127/138 50/128/139
f 65/129/140 69/130/141 67/126/142 66/125/143
f 64/131/144 70/132/145 69/130/146 65/129/147
f 63/133/148 71/134/149 70/132/150 64/131/151
f 62/135/152 72/136/153 71/134/154 63/133/155
f 61/137/156 73/138/157 72/136/158 62/135/159
f 60/139/160 74/140/161 73/138/162 61/137/163
f 59/141/164 75/142/165 74/140/166 60/139/167
f 58/143/168 76/144/169 75/145/170 59/146/171
f 57/147/172 77/148/173 76/144/174 58/143/175
f 56/149/176 78/150/177 77/148/178 57/147/179
f 55/151/180 79/152/181 78/150/182 56/149/183
f 54/153/184 80/154/185 79/152/186 55/151/187
f 53/155/188 81/156/189 80/154/190 54/153/191
f 51/157/192 82/158/193 81/156/194 53/155/195
f 50/128/196 68/127/197 82/158/198 51/157/199
f 52/110/200 64/122/201 65/123/202
f 52/110/203 55/113/204 56/114/205
f 52/110/206 59/117/207 60/118/208
f 50/108/209 52/110/210 66/124/211
f 52/110/212 62/120/213 63/121/214
f 52/110/215 53/111/216 54/112/217
f 83/159/218 84/160/219 85/161/220
f 84/160/221 86/162/222 85/161/223
f 85/161/224 87/163/225 88/164/226
f 85/161/227 89/165/228 90/166/229
f 90/166/230 91/167/231 85/161/232
f 85/161/233 91/167/234 92/168/235
f 93/169/236 94/170/237 85/161/238
f 85/161/239 94/170/240 95/171/241
f 85/161/242 96/172/243 97/173/244
f 98/174/245 99/175/246 85/161/247
f 99/176/248 100/177/249 101/178/250 83/179/251
f 98/180/252 102/181/253 100/177/254 99/176/255
f 97/182/256 103/183/257 102/181/258 98/180/259
f 96/184/260 104/185/261 103/183/262 97/182/263
f 95/186/264 105/187/265 104/185/266 96/184/267
f 94/188/268 106/189/269 105/187/270 95/186/271
f 93/190/272 107/191/273 106/189/274 94/188/275
f 92/192/276 108/193/277 107/191/278 93/190/279
f 91/194/280 109/195/281 108/196/282 92/197/283
f 90/198/284 110/199/285 109/195/286 91/194/287
f 89/200/288 111/201/289 110/199/290 90/198/291
f 88/202/292 112/203/293 111/201/294 89/200/295
f 87/204/296 113/205/297 112/203/298 88/202/299
f 86/206/300 114/207/301 113/205/302 87/204/303
f 84/208/304 115/209/305 114/207/306 86/206/307
f 83/179/308 101/178/309 115/209/310 84/208/311
f 85/161/312 97/173/313 98/174/314
f 85/161/315 88/164/316 89/165/317
f 85/161/318 92/168/319 93/169/320
f 83/159/321 85/161/322 99/175/323
f 85/161/324 95/171/325 96/172/326
f 85/161/327 86/162/328 87/163/329
