# This file uses centimeters as units for non-parametric coordinates.

mtllib 3023.mtl
g default
v 0.461485 0.000364 0.148438
v 0.513609 0.000364 0.113609
v 0.548437 0.000364 0.061485
v 0.560668 0.000364 0.000000
v 0.548438 0.000364 -0.061485
v 0.513609 0.000364 -0.113609
v 0.461485 0.000364 -0.148438
v 0.400000 0.000364 -0.160668
v 0.338515 0.000364 -0.148438
v 0.286391 0.000364 -0.113609
v 0.251562 0.000364 -0.061485
v 0.239332 0.000364 0.000000
v 0.251562 0.000364 0.061485
v 0.286391 0.000364 0.113609
v 0.338515 0.000364 0.148438
v 0.400000 0.000364 0.160668
v 0.461485 0.180500 0.148438
v 0.513609 0.180500 0.113609
v 0.548437 0.180500 0.061485
v 0.560668 0.180500 0.000000
v 0.548438 0.180500 -0.061485
v 0.513609 0.180500 -0.113609
v 0.461485 0.180500 -0.148438
v 0.400000 0.180500 -0.160668
v 0.338515 0.180500 -0.148438
v 0.286391 0.180500 -0.113609
v 0.251562 0.180500 -0.061485
v 0.239332 0.180500 0.000000
v 0.251562 0.180500 0.061485
v 0.286391 0.180500 0.113609
v 0.338515 0.180500 0.148438
v 0.400000 0.180500 0.160668
v 0.400000 0.000364 0.000000
v 0.558101 0.480707 0.000000
v 0.576515 0.480707 0.092571
v 0.800000 0.480705 0.000000
v 0.628952 0.480707 0.171048
v 0.707429 0.480707 0.223485
v 0.800000 0.480707 0.241899
v 0.892571 0.480707 0.223485
v 0.971048 0.480707 0.171048
v 1.023485 0.480707 0.092571
v 1.041899 0.480707 0.000000
v 1.023485 0.480707 -0.092571
v 0.971048 0.480707 -0.171048
v 0.892570 0.480707 -0.223485
v 0.800000 0.480707 -0.241899
v 0.707429 0.480707 -0.223485
v 0.628952 0.480707 -0.171048
v 0.576515 0.480707 -0.092571
v 0.576515 0.291483 -0.092571
v 0.558101 0.291483 0.000000
v 0.628952 0.291483 -0.171048
v 0.707429 0.291483 -0.223485
v 0.800000 0.291483 -0.241899
v 0.892570 0.291483 -0.223485
v 0.971048 0.291483 -0.171048
v 1.023485 0.291483 -0.092571
v 1.041899 0.291483 0.000000
v 1.023485 0.291483 0.092571
v 0.971048 0.291483 0.171048
v 0.892571 0.291483 0.223485
v 0.800000 0.291483 0.241899
v 0.707429 0.291483 0.223485
v 0.628952 0.291483 0.171048
v 0.576515 0.291483 0.092571
v 1.200000 0.320705 0.400000
v -0.400000 0.320705 0.400000
v 1.200000 0.000364 0.400000
v -0.400000 0.000364 0.400000
v 1.040000 0.160705 0.240000
v -0.240000 0.160705 0.240000
v 1.040000 0.000364 0.240000
v -0.240000 0.000364 0.240000
v 1.040000 0.160705 -0.240000
v -0.240000 0.160705 -0.240000
v 1.040000 0.000364 -0.240000
v -0.240000 0.000364 -0.240000
v 1.200000 0.320705 -0.400000
v -0.400000 0.320705 -0.400000
v 1.200000 0.000364 -0.400000
v -0.400000 0.000364 -0.400000
v -0.241899 0.480707 0.000000
v -0.223485 0.480707 0.092571
v 0.000000 0.480705 0.000000
v -0.171048 0.480707 0.171048
v -0.092571 0.480707 0.223485
v 0.000000 0.480707 0.241899
v 0.092571 0.480707 0.223485
v 0.171048 0.480707 0.171048
v 0.223485 0.480707 0.092571
v 0.241899 0.480707 0.000000
v 0.223485 0.480707 -0.092571
v 0.171048 0.480707 -0.171048
v 0.092570 0.480707 -0.223485
v 0.000000 0.480707 -0.241899
v -0.092571 0.480707 -0.223485
v -0.171048 0.480707 -0.171048
v -0.223485 0.480707 -0.092571
v -0.223485 0.291483 -0.092571
v -0.241899 0.291483 0.000000
v -0.171048 0.291483 -0.171048
v -0.092571 0.291483 -0.223485
v 0.000000 0.291483 -0.241899
v 0.092570 0.291483 -0.223485
v 0.171048 0.291483 -0.171048
v 0.223485 0.291483 -0.092571
v 0.241899 0.291483 0.000000
v 0.223485 0.291483 0.092571
v 0.171048 0.291483 0.171048
v 0.092571 0.291483 0.223485
v 0.000000 0.291483 0.241899
v -0.092571 0.291483 0.223485
v -0.171048 0.291483 0.171048
v -0.223485 0.291483 0.092571
vt 0.074841 0.767818
vt 0.099351 0.767818
vt 0.099351 0.838246
vt 0.074841 0.838246
vt 0.123860 0.767818
vt 0.123860 0.838245
vt 0.148370 0.767818
vt 0.148370 0.838245
vt 0.172879 0.767818
vt 0.172879 0.838245
vt 0.197389 0.767818
vt 0.197389 0.838245
vt 0.221899 0.767818
vt 0.221899 0.838245
vt 0.246408 0.767818
vt 0.246408 0.838245
vt 0.270918 0.767818
vt 0.270918 0.838245
vt 0.295427 0.767818
vt 0.295427 0.838245
vt 0.319937 0.767818
vt 0.319937 0.838245
vt 0.344447 0.767818
vt 0.344447 0.838245
vt 0.368956 0.767818
vt 0.368956 0.838245
vt 0.393466 0.767818
vt 0.393466 0.838245
vt 0.417975 0.767818
vt 0.417975 0.838245
vt 0.442485 0.767818
vt 0.442485 0.838245
vt 0.466994 0.767818
vt 0.466994 0.838245
vt 0.695756 0.708993
vt 0.714240 0.736390
vt 0.636133 0.769155
vt 0.668195 0.690756
vt 0.635752 0.684455
vt 0.603368 0.691048
vt 0.575972 0.709532
vt 0.557735 0.737094
vt 0.551433 0.769536
vt 0.558026 0.801920
vt 0.576511 0.829317
vt 0.604072 0.847554
vt 0.636514 0.853855
vt 0.668899 0.847262
vt 0.696295 0.828778
vt 0.714532 0.801216
vt 0.720834 0.768774
vt 0.854975 0.768410
vt 0.893372 0.776236
vt 0.854500 0.868841
vt 0.925852 0.798162
vt 0.947469 0.830847
vt 0.954931 0.869316
vt 0.947105 0.907714
vt 0.925179 0.940193
vt 0.892494 0.961810
vt 0.854024 0.969273
vt 0.815628 0.961446
vt 0.783148 0.939521
vt 0.761531 0.906835
vt 0.754069 0.868366
vt 0.761895 0.829969
vt 0.783821 0.797489
vt 0.816506 0.775872
vt 0.333955 0.966179
vt 0.333961 0.887580
vt 0.374402 0.887583
vt 0.374396 0.966182
vt 0.293514 0.966176
vt 0.293520 0.887577
vt 0.253073 0.966173
vt 0.253078 0.887574
vt 0.212631 0.966170
vt 0.212637 0.887571
vt 0.172190 0.966167
vt 0.172196 0.887567
vt 0.131749 0.966164
vt 0.131755 0.887564
vt 0.091308 0.966161
vt 0.091314 0.887561
vt 0.050867 0.966157
vt 0.050873 0.887558
vt 0.657484 0.966204
vt 0.657490 0.887604
vt 0.697931 0.887608
vt 0.697925 0.966207
vt 0.617043 0.966201
vt 0.617049 0.887601
vt 0.576602 0.966198
vt 0.576607 0.887598
vt 0.536160 0.966194
vt 0.536166 0.887595
vt 0.495719 0.966191
vt 0.495725 0.887592
vt 0.455278 0.966188
vt 0.455284 0.887589
vt 0.414837 0.966185
vt 0.414843 0.887586
vt 0.509136 0.157322
vt 0.556807 0.109639
vt 0.938224 0.109589
vt 0.985907 0.157260
vt 0.996822 0.449083
vt 0.949151 0.496767
vt 0.806120 0.496785
vt 0.758437 0.449114
vt 0.019135 0.332736
vt 0.066806 0.285053
vt 0.448223 0.285004
vt 0.495906 0.332675
vt 0.520877 0.505557
vt 0.568548 0.457874
vt 0.711579 0.457855
vt 0.759262 0.505526
vt 0.066781 0.020604
vt 0.448198 0.020554
vt 0.448216 0.163585
vt 0.066800 0.163635
vt 0.938218 0.031913
vt 0.938224 0.079692
vt 0.556807 0.079741
vt 0.556801 0.031963
vt 0.808106 0.595593
vt 0.808100 0.547815
vt 0.951131 0.547796
vt 0.951137 0.595575
vt 0.448216 0.206313
vt 0.448223 0.254091
vt 0.066806 0.254140
vt 0.066800 0.206362
vt 0.710876 0.361284
vt 0.710882 0.409063
vt 0.567851 0.409081
vt 0.567845 0.361302
vt 0.519661 0.632063
vt 0.519649 0.536607
vt 0.758034 0.536576
vt 0.758046 0.632032
vt 0.019147 0.462827
vt 0.019135 0.367372
vt 0.495906 0.367310
vt 0.495918 0.462766
vt 0.994739 0.320360
vt 0.994751 0.415816
vt 0.756366 0.415846
vt 0.756353 0.320391
vt 0.509149 0.277069
vt 0.509136 0.181613
vt 0.985907 0.181552
vt 0.985919 0.277007
vt 0.019147 0.491483
vt 0.495918 0.491421
vt 0.495949 0.729806
vt 0.019178 0.729868
vt 0.854975 0.768410
vt 0.893372 0.776236
vt 0.854500 0.868841
vt 0.925852 0.798162
vt 0.947469 0.830847
vt 0.954931 0.869316
vt 0.947105 0.907714
vt 0.925179 0.940193
vt 0.892494 0.961810
vt 0.854024 0.969273
vt 0.815628 0.961446
vt 0.783149 0.939521
vt 0.761531 0.906835
vt 0.754069 0.868366
vt 0.761895 0.829969
vt 0.783821 0.797489
vt 0.816506 0.775872
vt 0.333955 0.966179
vt 0.333961 0.887580
vt 0.374402 0.887583
vt 0.374396 0.966182
vt 0.293514 0.966176
vt 0.293520 0.887577
vt 0.253073 0.966173
vt 0.253078 0.887574
vt 0.212631 0.966170
vt 0.212637 0.887571
vt 0.172190 0.966167
vt 0.172196 0.887567
vt 0.131749 0.966164
vt 0.131755 0.887564
vt 0.091308 0.966161
vt 0.091314 0.887561
vt 0.050867 0.966157
vt 0.050873 0.887558
vt 0.657484 0.966204
vt 0.657490 0.887604
vt 0.697931 0.887608
vt 0.697925 0.966207
vt 0.617043 0.966201
vt 0.617049 0.887601
vt 0.576602 0.966198
vt 0.576607 0.887598
vt 0.536160 0.966194
vt 0.536166 0.887595
vt 0.495719 0.966191
vt 0.495725 0.887592
vt 0.455278 0.966188
vt 0.455284 0.887589
vt 0.414837 0.966185
vt 0.414843 0.887586
vn 0.382683 0.000000 0.923880
vn 0.707109 0.000000 0.707105
vn 0.707109 0.000000 0.707105
vn 0.382683 0.000000 0.923880
vn 0.923879 0.000000 0.382684
vn 0.923879 0.000000 0.382684
vn 1.000000 0.000000 0.000004
vn 1.000000 0.000000 0.000004
vn 0.923880 0.000000 -0.382683
vn 0.923880 0.000000 -0.382683
vn 0.707106 0.000000 -0.707108
vn 0.707106 0.000000 -0.707108
vn 0.382684 0.000000 -0.923879
vn 0.382684 0.000000 -0.923879
vn 0.000000 0.000000 -1.000000
vn 0.000000 0.000000 -1.000000
vn -0.382683 0.000000 -0.923880
vn -0.382683 0.000000 -0.923880
vn -0.707107 0.000000 -0.707107
vn -0.707107 0.000000 -0.707107
vn -0.923879 0.000000 -0.382684
vn -0.923879 0.000000 -0.382684
vn -1.000000 0.000000 0.000000
vn -1.000000 0.000000 0.000000
vn -0.923879 0.000000 0.382685
vn -0.923879 0.000000 0.382685
vn -0.707107 0.000000 0.707107
vn -0.707107 0.000000 0.707107
vn -0.382685 0.000000 0.923879
vn -0.382685 0.000000 0.923879
vn -0.000002 0.000000 1.000000
vn -0.000002 0.000000 1.000000
vn 0.000000 -1.000000 0.000000
vn 0.000000 -1.000000 0.000000
vn 0.000000 -1.000000 -0.000000
vn 0.000000 -1.000000 -0.000000
vn 0.000000 -1.000000 -0.000000
vn 0.000000 -1.000000 0.000000
vn 0.000000 -1.000000 0.000000
vn 0.000000 -1.000000 0.000000
vn 0.000000 -1.000000 0.000000
vn 0.000000 -1.000000 -0.000000
vn 0.000000 -1.000000 -0.000000
vn 0.000000 -1.000000 0.000000
vn 0.000000 -1.000000 0.000000
vn 0.000000 -1.000000 -0.000000
vn 0.000000 -1.000000 -0.000000
vn 0.000000 -1.000000 0.000000
vn 0.000000 -1.000000 0.000000
vn 0.000008 1.000000 -0.000000
vn 0.000007 1.000000 -0.000003
vn 0.000000 1.000000 0.000000
vn 0.000007 1.000000 -0.000003
vn 0.000004 1.000000 -0.000006
vn 0.000000 1.000000 0.000000
vn 0.000000 1.000000 0.000000
vn 0.000003 1.000000 -0.000007
vn -0.000000 1.000000 -0.000008
vn 0.000000 1.000000 0.000000
vn -0.000003 1.000000 -0.000007
vn -0.000005 1.000000 -0.000006
vn -0.000005 1.000000 -0.000006
vn -0.000007 1.000000 -0.000003
vn 0.000000 1.000000 0.000000
vn 0.000000 1.000000 0.000000
vn -0.000007 1.000000 -0.000003
vn -0.000008 1.000000 0.000000
vn -0.000007 1.000000 0.000003
vn -0.000005 1.000000 0.000006
vn 0.000000 1.000000 0.000000
vn 0.000000 1.000000 0.000000
vn -0.000005 1.000000 0.000006
vn -0.000003 1.000000 0.000007
vn 0.000000 1.000000 0.000000
vn 0.000000 1.000000 0.000008
vn 0.000004 1.000000 0.000007
vn 0.000006 1.000000 0.000006
vn 0.000007 1.000000 0.000003
vn 0.000000 1.000000 0.000000
vn -0.923879 0.000000 -0.382684
vn -0.923879 0.000000 -0.382684
vn -1.000000 0.000000 0.000000
vn -1.000000 0.000000 0.000000
vn -0.707107 0.000000 -0.707106
vn -0.707107 0.000000 -0.707106
vn -0.923879 0.000000 -0.382684
vn -0.923879 0.000000 -0.382684
vn -0.382683 0.000000 -0.923880
vn -0.382683 0.000000 -0.923880
vn -0.707107 0.000000 -0.707106
vn -0.707107 0.000000 -0.707106
vn -0.000000 0.000000 -1.000000
vn -0.000000 0.000000 -1.000000
vn -0.382683 0.000000 -0.923880
vn -0.382683 0.000000 -0.923880
vn 0.382683 0.000000 -0.923880
vn 0.382683 0.000000 -0.923880
vn -0.000000 0.000000 -1.000000
vn -0.000000 0.000000 -1.000000
vn 0.707107 0.000000 -0.707106
vn 0.707107 0.000000 -0.707106
vn 0.382683 0.000000 -0.923880
vn 0.382683 0.000000 -0.923880
vn 0.923879 0.000000 -0.382684
vn 0.923879 0.000000 -0.382684
vn 0.707107 0.000000 -0.707106
vn 0.707107 0.000000 -0.707106
vn 1.000000 0.000000 -0.000000
vn 1.000000 0.000000 -0.000000
vn 0.923879 0.000000 -0.382684
vn 0.923879 0.000000 -0.382684
vn 0.923879 0.000000 0.382684
vn 0.923879 0.000000 0.382684
vn 1.000000 0.000000 -0.000000
vn 1.000000 0.000000 -0.000000
vn 0.707108 0.000000 0.707106
vn 0.707108 0.000000 0.707106
vn 0.923879 0.000000 0.382684
vn 0.923879 0.000000 0.382684
vn 0.382684 0.000000 0.923879
vn 0.382684 0.000000 0.923879
vn 0.707108 0.000000 0.707106
vn 0.707108 0.000000 0.707106
vn 0.000000 0.000000 1.000000
vn 0.000000 0.000000 1.000000
vn 0.382684 0.000000 0.923879
vn 0.382684 0.000000 0.923879
vn -0.382684 0.000000 0.923879
vn -0.382684 0.000000 0.923879
vn 0.000000 0.000000 1.000000
vn 0.000000 0.000000 1.000000
vn -0.707107 0.000000 0.707106
vn -0.707107 0.000000 0.707106
vn -0.382684 0.000000 0.923879
vn -0.382684 0.000000 0.923879
vn -0.923879 0.000000 0.382684
vn -0.923879 0.000000 0.382684
vn -0.707107 0.000000 0.707106
vn -0.707107 0.000000 0.707106
vn -1.000000 0.000000 0.000000
vn -1.000000 0.000000 0.000000
vn -0.923879 0.000000 0.382684
vn -0.923879 0.000000 0.382684
vn 0.000000 1.000000 0.000000
vn 0.000004 1.000000 0.000007
vn 0.000006 1.000000 0.000006
vn 0.000000 1.000000 0.000000
vn -0.000000 1.000000 -0.000008
vn -0.000003 1.000000 -0.000007
vn 0.000000 1.000000 0.000000
vn -0.000008 1.000000 0.000000
vn -0.000007 1.000000 0.000003
vn 0.000008 1.000000 -0.000000
vn 0.000000 1.000000 0.000000
vn 0.000007 1.000000 0.000003
vn 0.000000 1.000000 0.000000
vn -0.000003 1.000000 0.000007
vn 0.000000 1.000000 0.000008
vn 0.000000 1.000000 0.000000
vn 0.000004 1.000000 -0.000006
vn 0.000003 1.000000 -0.000007
vn 0.000000 -1.000000 0.000000
vn 0.000000 -1.000000 0.000000
vn 0.000000 -1.000000 0.000000
vn 0.000000 -1.000000 0.000000
vn 0.000000 -1.000000 0.000000
vn 0.000000 -1.000000 0.000000
vn 0.000000 -1.000000 0.000000
vn 0.000000 -1.000000 0.000000
vn 0.000000 -1.000000 0.000000
vn 0.000000 -1.000000 0.000000
vn 0.000000 -1.000000 0.000000
vn 0.000000 -1.000000 0.000000
vn 0.000000 -1.000000 0.000000
vn 0.000000 -1.000000 0.000000
vn 0.000000 -1.000000 0.000000
vn 0.000000 -1.000000 0.000000
vn 0.000000 -1.000000 0.000000
vn 0.000000 -1.000000 0.000000
vn 0.000000 -1.000000 0.000000
vn 0.000000 -1.000000 0.000000
vn -0.000000 0.000000 1.000000
vn -0.000000 0.000000 1.000000
vn -0.000000 0.000000 1.000000
vn -0.000000 0.000000 1.000000
vn 1.000000 0.000000 0.000000
vn 1.000000 0.000000 0.000000
vn 1.000000 0.000000 0.000000
vn 1.000000 0.000000 0.000000
vn -0.000000 0.000000 -1.000000
vn -0.000000 0.000000 -1.000000
vn -0.000000 0.000000 -1.000000
vn -0.000000 0.000000 -1.000000
vn -1.000000 0.000000 0.000000
vn -1.000000 0.000000 0.000000
vn -1.000000 0.000000 0.000000
vn -1.000000 0.000000 0.000000
vn 1.000000 0.000000 0.000000
vn 1.000000 0.000000 0.000000
vn 1.000000 0.000000 0.000000
vn 1.000000 0.000000 0.000000
vn 0.000000 0.000000 1.000000
vn 0.000000 0.000000 1.000000
vn 0.000000 0.000000 1.000000
vn 0.000000 0.000000 1.000000
vn -1.000000 0.000000 -0.000000
vn -1.000000 0.000000 -0.000000
vn -1.000000 0.000000 -0.000000
vn -1.000000 0.000000 -0.000000
vn 0.000000 0.000000 -1.000000
vn 0.000000 0.000000 -1.000000
vn 0.000000 0.000000 -1.000000
vn 0.000000 0.000000 -1.000000
vn 0.000000 1.000000 0.000000
vn 0.000000 1.000000 0.000000
vn 0.000000 1.000000 0.000000
vn 0.000000 1.000000 0.000000
vn 0.000008 1.000000 -0.000000
vn 0.000007 1.000000 -0.000003
vn 0.000000 1.000000 0.000000
vn 0.000007 1.000000 -0.000003
vn 0.000004 1.000000 -0.000006
vn 0.000000 1.000000 0.000000
vn 0.000000 1.000000 0.000000
vn 0.000003 1.000000 -0.000007
vn -0.000000 1.000000 -0.000008
vn 0.000000 1.000000 0.000000
vn -0.000003 1.000000 -0.000007
vn -0.000005 1.000000 -0.000006
vn -0.000005 1.000000 -0.000006
vn -0.000007 1.000000 -0.000003
vn 0.000000 1.000000 0.000000
vn 0.000000 1.000000 0.000000
vn -0.000007 1.000000 -0.000003
vn -0.000008 1.000000 0.000000
vn -0.000007 1.000000 0.000003
vn -0.000005 1.000000 0.000006
vn 0.000000 1.000000 0.000000
vn 0.000000 1.000000 0.000000
vn -0.000005 1.000000 0.000006
vn -0.000003 1.000000 0.000007
vn 0.000000 1.000000 0.000000
vn 0.000000 1.000000 0.000008
vn 0.000004 1.000000 0.000007
vn 0.000006 1.000000 0.000006
vn 0.000007 1.000000 0.000003
vn 0.000000 1.000000 0.000000
vn -0.923879 0.000000 -0.382684
vn -0.923879 0.000000 -0.382684
vn -1.000000 0.000000 0.000000
vn -1.000000 0.000000 0.000000
vn -0.707107 0.000000 -0.707106
vn -0.707107 0.000000 -0.707106
vn -0.923879 0.000000 -0.382684
vn -0.923879 0.000000 -0.382684
vn -0.382683 0.000000 -0.923880
vn -0.382683 0.000000 -0.923880
vn -0.707107 0.000000 -0.707106
vn -0.707107 0.000000 -0.707106
vn -0.000000 0.000000 -1.000000
vn -0.000000 0.000000 -1.000000
vn -0.382683 0.000000 -0.923880
vn -0.382683 0.000000 -0.923880
vn 0.382683 0.000000 -0.923880
vn 0.382683 0.000000 -0.923880
vn -0.000000 0.000000 -1.000000
vn -0.000000 0.000000 -1.000000
vn 0.707107 0.000000 -0.707106
vn 0.707107 0.000000 -0.707106
vn 0.382683 0.000000 -0.923880
vn 0.382683 0.000000 -0.923880
vn 0.923879 0.000000 -0.382684
vn 0.923879 0.000000 -0.382684
vn 0.707107 0.000000 -0.707106
vn 0.707107 0.000000 -0.707106
vn 1.000000 0.000000 -0.000000
vn 1.000000 0.000000 -0.000000
vn 0.923879 0.000000 -0.382684
vn 0.923879 0.000000 -0.382684
vn 0.923879 0.000000 0.382684
vn 0.923879 0.000000 0.382684
vn 1.000000 0.000000 -0.000000
vn 1.000000 0.000000 -0.000000
vn 0.707108 0.000000 0.707106
vn 0.707108 0.000000 0.707106
vn 0.923879 0.000000 0.382684
vn 0.923879 0.000000 0.382684
vn 0.382684 0.000000 0.923879
vn 0.382684 0.000000 0.923879
vn 0.707108 0.000000 0.707106
vn 0.707108 0.000000 0.707106
vn 0.000000 0.000000 1.000000
vn 0.000000 0.000000 1.000000
vn 0.382684 0.000000 0.923879
vn 0.382684 0.000000 0.923879
vn -0.382684 0.000000 0.923879
vn -0.382684 0.000000 0.923879
vn 0.000000 0.000000 1.000000
vn 0.000000 0.000000 1.000000
vn -0.707107 0.000000 0.707106
vn -0.707107 0.000000 0.707106
vn -0.382684 0.000000 0.923879
vn -0.382684 0.000000 0.923879
vn -0.923879 0.000000 0.382684
vn -0.923879 0.000000 0.382684
vn -0.707107 0.000000 0.707106
vn -0.707107 0.000000 0.707106
vn -1.000000 0.000000 0.000000
vn -1.000000 0.000000 0.000000
vn -0.923879 0.000000 0.382684
vn -0.923879 0.000000 0.382684
vn 0.000000 1.000000 0.000000
vn 0.000004 1.000000 0.000007
vn 0.000006 1.000000 0.000006
vn 0.000000 1.000000 0.000000
vn -0.000000 1.000000 -0.000008
vn -0.000003 1.000000 -0.000007
vn 0.000000 1.000000 0.000000
vn -0.000008 1.000000 0.000000
vn -0.000007 1.000000 0.000003
vn 0.000008 1.000000 -0.000000
vn 0.000000 1.000000 0.000000
vn 0.000007 1.000000 0.000003
vn 0.000000 1.000000 0.000000
vn -0.000003 1.000000 0.000007
vn 0.000000 1.000000 0.000008
vn 0.000000 1.000000 0.000000
vn 0.000004 1.000000 -0.000006
vn 0.000003 1.000000 -0.000007
s 1
g b3023
usemtl lambert3SG
f 1/1/1 2/2/2 18/3/3 17/4/4
f 2/2/2 3/5/5 19/6/6 18/3/3
f 3/5/5 4/7/7 20/8/8 19/6/6
f 4/7/7 5/9/9 21/10/10 20/8/8
f 5/9/9 6/11/11 22/12/12 21/10/10
f 6/11/11 7/13/13 23/14/14 22/12/12
f 7/13/13 8/15/15 24/16/16 23/14/14
f 8/15/15 9/17/17 25/18/18 24/16/16
f 9/17/17 10/19/19 26/20/20 25/18/18
f 10/19/19 11/21/21 27/22/22 26/20/20
f 11/21/21 12/23/23 28/24/24 27/22/22
f 12/23/23 13/25/25 29/26/26 28/24/24
f 13/25/25 14/27/27 30/28/28 29/26/26
f 14/27/27 15/29/29 31/30/30 30/28/28
f 15/29/29 16/31/31 32/32/32 31/30/30
f 16/31/31 1/33/1 17/34/4 32/32/32
s 2
f 2/35/33 1/36/34 33/37/35
f 3/38/36 2/35/33 33/37/35
f 4/39/37 3/38/36 33/37/35
f 5/40/38 4/39/37 33/37/35
f 6/41/39 5/40/38 33/37/35
f 7/42/40 6/41/39 33/37/35
f 8/43/41 7/42/40 33/37/35
f 9/44/42 8/43/41 33/37/35
f 10/45/43 9/44/42 33/37/35
f 11/46/44 10/45/43 33/37/35
f 12/47/45 11/46/44 33/37/35
f 13/48/46 12/47/45 33/37/35
f 14/49/47 13/48/46 33/37/35
f 15/50/48 14/49/47 33/37/35
f 16/51/49 15/50/48 33/37/35
f 1/36/34 16/51/49 33/37/35
s off
f 34/52/50 35/53/51 36/54/52
f 35/53/53 37/55/54 36/54/55
f 36/54/56 38/56/57 39/57/58
f 36/54/59 40/58/60 41/59/61
f 41/59/62 42/60/63 36/54/64
f 36/54/65 42/60/66 43/61/67
f 44/62/68 45/63/69 36/54/70
f 36/54/71 45/63/72 46/64/73
f 36/54/74 47/65/75 48/66/76
f 49/67/77 50/68/78 36/54/79
f 50/69/80 51/70/81 52/71/82 34/72/83
f 49/73/84 53/74/85 51/70/86 50/69/87
f 48/75/88 54/76/89 53/74/90 49/73/91
f 47/77/92 55/78/93 54/76/94 48/75/95
f 46/79/96 56/80/97 55/78/98 47/77/99
f 45/81/100 57/82/101 56/80/102 46/79/103
f 44/83/104 58/84/105 57/82/106 45/81/107
f 43/85/108 59/86/109 58/84/110 44/83/111
f 42/87/112 60/88/113 59/89/114 43/90/115
f 41/91/116 61/92/117 60/88/118 42/87/119
f 40/93/120 62/94/121 61/92/122 41/91/123
f 39/95/124 63/96/125 62/94/126 40/93/127
f 38/97/128 64/98/129 63/96/130 39/95/131
f 37/99/132 65/100/133 64/98/134 38/97/135
f 35/101/136 66/102/137 65/100/138 37/99/139
f 34/72/140 52/71/141 66/102/142 35/101/143
f 36/54/144 48/66/145 49/67/146
f 36/54/147 39/57/148 40/58/149
f 36/54/150 43/61/151 44/62/152
f 34/52/153 36/54/154 50/68/155
f 36/54/156 46/64/157 47/65/158
f 36/54/159 37/55/160 38/56/161
f 81/103/162 77/104/163 78/105/164 82/106/165
f 82/107/166 78/108/167 74/109/168 70/110/169
f 70/111/170 74/112/171 73/113/172 69/114/173
f 69/115/174 73/116/175 77/117/176 81/118/177
f 76/119/178 75/120/179 71/121/180 72/122/181
f 76/123/182 78/124/183 77/125/184 75/126/185
f 72/127/186 74/128/187 78/129/188 76/130/189
f 71/131/190 73/132/191 74/133/192 72/134/193
f 75/135/194 77/136/195 73/137/196 71/138/197
f 67/139/198 69/140/199 81/141/200 79/142/201
f 68/143/202 70/144/203 69/145/204 67/146/205
f 80/147/206 82/148/207 70/149/208 68/150/209
f 79/151/210 81/152/211 82/153/212 80/154/213
f 68/155/214 67/156/215 79/157/216 80/158/217
f 83/159/218 84/160/219 85/161/220
f 84/160/221 86/162/222 85/161/223
f 85/161/224 87/163/225 88/164/226
f 85/161/227 89/165/228 90/166/229
f 90/166/230 91/167/231 85/161/232
f 85/161/233 91/167/234 92/168/235
f 93/169/236 94/170/237 85/161/238
f 85/161/239 94/170/240 95/171/241
f 85/161/242 96/172/243 97/173/244
f 98/174/245 99/175/246 85/161/247
f 99/176/248 100/177/249 101/178/250 83/179/251
f 98/180/252 102/181/253 100/177/254 99/176/255
f 97/182/256 103/183/257 102/181/258 98/180/259
f 96/184/260 104/185/261 103/183/262 97/182/263
f 95/186/264 105/187/265 104/185/266 96/184/267
f 94/188/268 106/189/269 105/187/270 95/186/271
f 93/190/272 107/191/273 106/189/274 94/188/275
f 92/192/276 108/193/277 107/191/278 93/190/279
f 91/194/280 109/195/281 108/196/282 92/197/283
f 90/198/284 110/199/285 109/195/286 91/194/287
f 89/200/288 111/201/289 110/199/290 90/198/291
f 88/202/292 112/203/293 111/201/294 89/200/295
f 87/204/296 113/205/297 112/203/298 88/202/299
f 86/206/300 114/207/301 113/205/302 87/204/303
f 84/208/304 115/209/305 114/207/306 86/206/307
f 83/179/308 101/178/309 115/209/310 84/208/311
f 85/161/312 97/173/313 98/174/314
f 85/161/315 88/164/316 89/165/317
f 85/161/318 92/168/319 93/169/320
f 83/159/321 85/161/322 99/175/323
f 85/161/324 95/171/325 96/172/326
f 85/161/327 86/162/328 87/163/329
