# This file uses centimeters as units for non-parametric coordinates.

mtllib 3040.mtl
g default
v 0.000000 1.120002 0.241899
v 0.092571 1.120002 0.223485
v 0.000000 1.120000 0.000000
v 0.171048 1.120002 0.171048
v 0.223485 1.120002 0.092571
v 0.241899 1.120002 0.000000
v 0.223485 1.120002 -0.092571
v 0.171048 1.120002 -0.171048
v 0.092571 1.120002 -0.223485
v 0.000000 1.120002 -0.241899
v -0.092571 1.120002 -0.223485
v -0.171048 1.120002 -0.171048
v -0.223485 1.120002 -0.092570
v -0.241899 1.120002 0.000000
v -0.223485 1.120002 0.092571
v -0.171048 1.120002 0.171048
v -0.092571 1.120002 0.223485
v -0.092571 0.930778 0.223485
v 0.000000 0.930778 0.241899
v -0.171048 0.930778 0.171048
v -0.223485 0.930778 0.092571
v -0.241899 0.930778 0.000000
v -0.223485 0.930778 -0.092570
v -0.171048 0.930778 -0.171048
v -0.092571 0.930778 -0.223485
v 0.000000 0.930778 -0.241899
v 0.092571 0.930778 -0.223485
v 0.171048 0.930778 -0.171048
v 0.223485 0.930778 -0.092571
v 0.241899 0.930778 0.000000
v 0.223485 0.930778 0.092571
v 0.171048 0.930778 0.171048
v 0.092571 0.930778 0.223485
v -0.160000 0.836918 0.400000
v -0.160000 -0.000000 0.400000
v -0.147821 0.806303 0.461229
v -0.147821 -0.000000 0.461229
v -0.147820 0.867533 0.338771
v -0.147820 0.000000 0.338771
v -0.113137 0.893487 0.286863
v -0.113137 0.780349 0.513137
v -0.113137 0.000000 0.286863
v -0.113137 -0.000001 0.513137
v -0.061229 0.910828 0.252179
v -0.061229 0.763008 0.547821
v -0.061229 0.000001 0.252179
v -0.061229 -0.000001 0.547821
v 0.000000 0.916918 0.240000
v 0.000000 0.756918 0.560000
v 0.000000 0.000001 0.240000
v 0.000000 -0.000001 0.560000
v 0.061229 0.910828 0.252179
v 0.061229 0.763008 0.547821
v 0.061229 0.000001 0.252179
v 0.061229 -0.000001 0.547821
v 0.113137 0.893487 0.286863
v 0.113137 0.780349 0.513137
v 0.113137 0.000000 0.286863
v 0.113137 -0.000001 0.513137
v 0.147820 0.867533 0.338771
v 0.147820 0.806303 0.461229
v 0.147820 0.000000 0.338771
v 0.147820 -0.000000 0.461229
v 0.160000 0.836918 0.400000
v 0.160000 -0.000000 0.400000
v 0.000000 -0.000000 0.400000
v -0.400001 0.960000 0.400000
v -0.400001 0.960000 -0.400000
v -0.400001 0.159997 1.200000
v -0.400001 -0.000000 1.200000
v -0.400001 -0.000000 -0.400000
v -0.240000 0.800000 0.400000
v -0.240000 0.800000 -0.240000
v -0.240000 0.159997 1.040000
v -0.240000 -0.000000 1.040000
v -0.240000 -0.000000 -0.240000
v 0.240000 0.800000 0.400000
v 0.240000 0.800000 -0.240000
v 0.240000 0.159997 1.040000
v 0.240000 -0.000000 1.040000
v 0.240000 -0.000000 -0.240000
v 0.400000 0.960000 0.400000
v 0.400000 0.960000 -0.400000
v 0.400000 0.159997 1.200000
v 0.400000 -0.000000 1.200000
v 0.400000 -0.000000 -0.400000
v 0.240000 0.159994 -0.240000
v -0.240000 0.159994 -0.240000
v -0.400001 0.159994 -0.400000
v 0.400000 0.159994 -0.400000
vt 0.854025 0.976891
vt 0.815628 0.969065
vt 0.854500 0.876460
vt 0.783148 0.947139
vt 0.761531 0.914454
vt 0.754069 0.875985
vt 0.761895 0.837587
vt 0.783821 0.805108
vt 0.816506 0.783491
vt 0.854976 0.776028
vt 0.893372 0.783855
vt 0.925851 0.805780
vt 0.947469 0.838466
vt 0.954931 0.876935
vt 0.947105 0.915332
vt 0.925179 0.947812
vt 0.892494 0.969429
vt 0.333955 0.977606
vt 0.333961 0.899007
vt 0.374402 0.899010
vt 0.374396 0.977609
vt 0.293514 0.977603
vt 0.293520 0.899004
vt 0.253073 0.977600
vt 0.253078 0.899001
vt 0.212631 0.977597
vt 0.212637 0.898998
vt 0.172190 0.977594
vt 0.172196 0.898994
vt 0.131749 0.977591
vt 0.131755 0.898991
vt 0.091308 0.977588
vt 0.091314 0.898988
vt 0.050867 0.977584
vt 0.050873 0.898985
vt 0.657484 0.977631
vt 0.657490 0.899031
vt 0.697931 0.899035
vt 0.697925 0.977634
vt 0.617043 0.977628
vt 0.617049 0.899028
vt 0.576602 0.977625
vt 0.576607 0.899025
vt 0.536160 0.977621
vt 0.536166 0.899022
vt 0.495719 0.977618
vt 0.495725 0.899019
vt 0.455278 0.977615
vt 0.455284 0.899016
vt 0.414837 0.977612
vt 0.414843 0.899013
vt 0.919527 0.754359
vt 0.919564 0.535964
vt 0.935854 0.535967
vt 0.935816 0.762351
vt 0.952145 0.535970
vt 0.952106 0.769127
vt 0.968436 0.535972
vt 0.968396 0.773655
vt 0.707741 0.773610
vt 0.707782 0.535928
vt 0.724072 0.535931
vt 0.724032 0.775203
vt 0.740363 0.535934
vt 0.740323 0.773616
vt 0.756654 0.535937
vt 0.756615 0.769094
vt 0.772945 0.535939
vt 0.772907 0.762324
vt 0.789236 0.535942
vt 0.789199 0.754338
vt 0.805527 0.535945
vt 0.805491 0.746351
vt 0.821818 0.535948
vt 0.821784 0.739581
vt 0.838109 0.535950
vt 0.838075 0.735059
vt 0.854400 0.535953
vt 0.854366 0.733472
vt 0.870691 0.535956
vt 0.870657 0.735064
vt 0.886982 0.535959
vt 0.886948 0.739592
vt 0.903272 0.535961
vt 0.903237 0.746367
vt 0.658588 0.594568
vt 0.617638 0.602712
vt 0.652354 0.579517
vt 0.625781 0.643662
vt 0.640832 0.637429
vt 0.582923 0.579514
vt 0.576688 0.594564
vt 0.625785 0.561762
vt 0.609494 0.561762
vt 0.658587 0.610859
vt 0.582921 0.625907
vt 0.594440 0.637426
vt 0.609490 0.643661
vt 0.594443 0.567995
vt 0.652352 0.625910
vt 0.576687 0.610856
vt 0.640836 0.567997
vt 0.634724 0.288458
vt 0.929958 0.288445
vt 0.929967 0.497206
vt 0.634733 0.497219
vt 0.324069 0.285669
vt 0.365821 0.327422
vt 0.491077 0.327422
vt 0.532830 0.285669
vt 0.491077 0.661440
vt 0.532830 0.703192
vt 0.365821 0.661440
vt 0.324069 0.703192
vt 0.969497 0.042391
vt 0.969492 0.209401
vt 0.844236 0.209398
vt 0.844240 0.042388
vt 0.313453 0.256340
vt 0.313443 0.047579
vt 0.522205 0.047569
vt 0.522214 0.256331
vt 0.402280 0.864732
vt 0.360529 0.864731
vt 0.360532 0.739474
vt 0.402283 0.739476
vt 0.563582 0.288460
vt 0.605333 0.288458
vt 0.605343 0.497219
vt 0.563591 0.497222
vt 0.638470 0.739481
vt 0.638467 0.864738
vt 0.064997 0.856344
vt 0.065000 0.731087
vt 0.106751 0.731088
vt 0.106748 0.856344
vt 0.558863 0.250759
vt 0.558853 0.041998
vt 0.600604 0.041997
vt 0.600614 0.250757
vt 0.282540 0.359021
vt 0.282532 0.693040
vt 0.240781 0.693039
vt 0.240789 0.359020
vt 0.029721 0.038347
vt 0.029702 0.455869
vt 0.071454 0.455871
vt 0.071472 0.038348
vt 0.282538 0.693036
vt 0.282530 0.359018
vt 0.240778 0.359019
vt 0.240788 0.693037
vt 0.029726 0.455876
vt 0.029707 0.038353
vt 0.071458 0.038351
vt 0.071477 0.455874
vt 0.073773 0.526033
vt 0.073777 0.693042
vt 0.273762 0.731092
vt 0.273759 0.856349
vt 0.073771 0.693034
vt 0.073775 0.526025
vt 0.280225 0.247119
vt 0.280235 0.038358
vt 0.809367 0.041987
vt 0.809377 0.250748
vt 0.280221 0.038342
vt 0.280230 0.247103
vn -0.000000 1.000000 -0.000008
vn -0.000003 1.000000 -0.000007
vn 0.000000 1.000000 0.000000
vn -0.000003 1.000000 -0.000007
vn -0.000006 1.000000 -0.000004
vn 0.000000 1.000000 0.000000
vn 0.000000 1.000000 0.000000
vn -0.000007 1.000000 -0.000003
vn -0.000008 1.000000 0.000000
vn 0.000000 1.000000 0.000000
vn -0.000007 1.000000 0.000003
vn -0.000006 1.000000 0.000005
vn -0.000006 1.000000 0.000005
vn -0.000003 1.000000 0.000007
vn 0.000000 1.000000 0.000000
vn 0.000000 1.000000 0.000000
vn -0.000003 1.000000 0.000007
vn 0.000000 1.000000 0.000008
vn 0.000003 1.000000 0.000007
vn 0.000006 1.000000 0.000005
vn 0.000000 1.000000 0.000000
vn 0.000000 1.000000 0.000000
vn 0.000006 1.000000 0.000005
vn 0.000007 1.000000 0.000003
vn 0.000000 1.000000 0.000000
vn 0.000008 1.000000 -0.000000
vn 0.000007 1.000000 -0.000004
vn 0.000006 1.000000 -0.000006
vn 0.000003 1.000000 -0.000007
vn 0.000000 1.000000 0.000000
vn -0.382684 0.000000 0.923879
vn -0.382684 0.000000 0.923879
vn 0.000000 0.000000 1.000000
vn 0.000000 0.000000 1.000000
vn -0.707106 0.000000 0.707107
vn -0.707106 0.000000 0.707107
vn -0.382684 0.000000 0.923879
vn -0.382684 0.000000 0.923879
vn -0.923880 0.000000 0.382683
vn -0.923880 0.000000 0.382683
vn -0.707106 0.000000 0.707107
vn -0.707106 0.000000 0.707107
vn -1.000000 0.000000 0.000000
vn -1.000000 0.000000 0.000000
vn -0.923880 0.000000 0.382683
vn -0.923880 0.000000 0.382683
vn -0.923880 0.000000 -0.382683
vn -0.923880 0.000000 -0.382683
vn -1.000000 0.000000 0.000000
vn -1.000000 0.000000 0.000000
vn -0.707106 0.000000 -0.707107
vn -0.707106 0.000000 -0.707107
vn -0.923880 0.000000 -0.382683
vn -0.923880 0.000000 -0.382683
vn -0.382684 0.000000 -0.923879
vn -0.382684 0.000000 -0.923879
vn -0.707106 0.000000 -0.707107
vn -0.707106 0.000000 -0.707107
vn -0.000000 0.000000 -1.000000
vn -0.000000 0.000000 -1.000000
vn -0.382684 0.000000 -0.923879
vn -0.382684 0.000000 -0.923879
vn 0.382684 0.000000 -0.923879
vn 0.382684 0.000000 -0.923879
vn -0.000000 0.000000 -1.000000
vn -0.000000 0.000000 -1.000000
vn 0.707106 0.000000 -0.707108
vn 0.707106 0.000000 -0.707108
vn 0.382684 0.000000 -0.923879
vn 0.382684 0.000000 -0.923879
vn 0.923879 0.000000 -0.382684
vn 0.923879 0.000000 -0.382684
vn 0.707106 0.000000 -0.707108
vn 0.707106 0.000000 -0.707108
vn 1.000000 0.000000 -0.000000
vn 1.000000 0.000000 -0.000000
vn 0.923879 0.000000 -0.382684
vn 0.923879 0.000000 -0.382684
vn 0.923879 0.000000 0.382684
vn 0.923879 0.000000 0.382684
vn 1.000000 0.000000 -0.000000
vn 1.000000 0.000000 -0.000000
vn 0.707106 0.000000 0.707107
vn 0.707106 0.000000 0.707107
vn 0.923879 0.000000 0.382684
vn 0.923879 0.000000 0.382684
vn 0.382684 0.000000 0.923879
vn 0.382684 0.000000 0.923879
vn 0.707106 0.000000 0.707107
vn 0.707106 0.000000 0.707107
vn 0.000000 0.000000 1.000000
vn 0.000000 0.000000 1.000000
vn 0.382684 0.000000 0.923879
vn 0.382684 0.000000 0.923879
vn 0.000000 1.000000 0.000000
vn 0.000007 1.000000 -0.000004
vn 0.000006 1.000000 -0.000006
vn 0.000000 1.000000 0.000000
vn -0.000008 1.000000 0.000000
vn -0.000007 1.000000 0.000003
vn 0.000000 1.000000 0.000000
vn 0.000000 1.000000 0.000008
vn 0.000003 1.000000 0.000007
vn -0.000000 1.000000 -0.000008
vn 0.000000 1.000000 0.000000
vn 0.000003 1.000000 -0.000007
vn 0.000000 1.000000 0.000000
vn 0.000007 1.000000 0.000003
vn 0.000008 1.000000 -0.000000
vn 0.000000 1.000000 0.000000
vn -0.000006 1.000000 -0.000004
vn -0.000007 1.000000 -0.000003
vn 0.998141 0.000000 -0.060942
vn 0.999993 0.000000 -0.003638
vn 0.922633 0.000000 -0.385679
vn 0.900225 0.000000 -0.435425
vn 0.705402 0.000000 -0.708808
vn 0.673789 0.000000 -0.738924
vn 0.381499 0.000000 -0.924370
vn 0.358600 0.000000 -0.933492
vn 0.000000 0.000000 -1.000000
vn 0.000000 0.000000 -1.000000
vn -0.381498 0.000000 -0.924370
vn -0.358600 0.000000 -0.933492
vn -0.705398 0.000000 -0.708812
vn -0.673786 0.000000 -0.738926
vn -0.922633 0.000000 -0.385679
vn -0.900223 0.000000 -0.435428
vn -0.999993 0.000000 -0.003645
vn -0.998141 0.000000 -0.060943
vn -0.925207 0.000000 0.379462
vn -0.943832 0.000000 0.330427
vn -0.709045 0.000000 0.705163
vn -0.736924 0.000000 0.675976
vn -0.384089 0.000000 0.923296
vn -0.404368 0.000000 0.914597
vn 0.000000 0.000000 1.000000
vn 0.000000 0.000000 1.000000
vn 0.384089 0.000000 0.923296
vn 0.404368 0.000000 0.914597
vn 0.709053 0.000000 0.705155
vn 0.736934 0.000000 0.675965
vn 0.925207 0.000000 0.379462
vn 0.943829 0.000000 0.330434
vn -0.000000 -1.000000 -0.000005
vn -0.000000 -1.000000 -0.000005
vn -0.000000 -1.000000 -0.000005
vn 0.000000 -1.000000 -0.000005
vn 0.000000 -1.000000 -0.000005
vn 0.000000 -1.000000 -0.000005
vn 0.000000 -1.000000 -0.000004
vn 0.000000 -1.000000 -0.000004
vn 0.000000 -1.000000 -0.000004
vn 0.000000 -1.000000 -0.000005
vn 0.000000 -1.000000 -0.000005
vn 0.000000 -1.000000 -0.000005
vn -0.000000 -1.000000 -0.000005
vn -0.000000 -1.000000 -0.000005
vn -0.000000 -1.000000 -0.000005
vn -0.000000 -1.000000 -0.000005
vn -0.000000 -1.000000 -0.000005
vn -0.000000 -1.000000 -0.000005
vn 0.000000 -1.000000 -0.000005
vn 0.000000 -1.000000 -0.000005
vn 0.000000 -1.000000 -0.000005
vn 0.000000 -1.000000 -0.000004
vn 0.000000 -1.000000 -0.000004
vn 0.000000 -1.000000 -0.000004
vn 0.000000 -1.000000 -0.000005
vn 0.000000 -1.000000 -0.000005
vn 0.000000 -1.000000 -0.000005
vn 0.000000 -1.000000 -0.000004
vn 0.000000 -1.000000 -0.000004
vn 0.000000 -1.000000 -0.000004
vn 0.000000 -1.000000 -0.000004
vn 0.000000 -1.000000 -0.000004
vn 0.000000 -1.000000 -0.000004
vn -0.000000 -1.000000 -0.000005
vn -0.000000 -1.000000 -0.000005
vn -0.000000 -1.000000 -0.000005
vn -0.000000 -1.000000 -0.000005
vn -0.000000 -1.000000 -0.000005
vn -0.000000 -1.000000 -0.000005
vn -0.000000 -1.000000 -0.000005
vn -0.000000 -1.000000 -0.000005
vn -0.000000 -1.000000 -0.000005
vn 0.000000 -1.000000 -0.000005
vn 0.000000 -1.000000 -0.000005
vn 0.000000 -1.000000 -0.000005
vn 0.000000 -1.000000 -0.000005
vn 0.000000 -1.000000 -0.000005
vn 0.000000 -1.000000 -0.000005
vn 0.000000 0.707106 0.707108
vn 0.000000 0.707106 0.707108
vn 0.000000 0.707106 0.707108
vn 0.000000 0.707106 0.707108
vn 0.000000 -1.000000 0.000000
vn 0.000000 -1.000000 0.000000
vn 0.000000 -1.000000 0.000000
vn 0.000000 -1.000000 0.000000
vn 0.000000 -1.000000 0.000000
vn 0.000000 -1.000000 0.000000
vn 0.000000 -1.000000 0.000000
vn 0.000000 -1.000000 0.000000
vn 0.000000 -1.000000 0.000000
vn 0.000000 -1.000000 0.000000
vn 0.000000 -1.000000 0.000000
vn 0.000000 -1.000000 0.000000
vn 0.000000 -1.000000 0.000000
vn 0.000000 -1.000000 0.000000
vn 0.000000 -1.000000 0.000000
vn 0.000000 -1.000000 0.000000
vn 0.000000 -1.000000 0.000000
vn 0.000000 -1.000000 0.000000
vn 0.000000 -1.000000 0.000000
vn 0.000000 -1.000000 0.000000
vn 0.000000 1.000000 0.000000
vn 0.000000 1.000000 0.000000
vn 0.000000 1.000000 0.000000
vn 0.000000 1.000000 0.000000
vn 0.000000 0.000000 -1.000000
vn 0.000000 0.000000 -1.000000
vn 0.000000 0.000000 -1.000000
vn 0.000000 0.000000 -1.000000
vn 0.000000 0.000000 1.000000
vn 0.000000 0.000000 1.000000
vn 0.000000 0.000000 1.000000
vn 0.000000 0.000000 1.000000
vn 0.000000 -0.707105 -0.707108
vn 0.000000 -0.707105 -0.707108
vn 0.000000 -0.707105 -0.707108
vn 0.000000 -0.707105 -0.707108
vn 0.000000 0.000000 1.000000
vn 0.000000 0.000000 1.000000
vn 0.000000 0.000000 1.000000
vn 0.000000 0.000000 1.000000
vn 0.000000 0.000000 -1.000000
vn 0.000000 0.000000 -1.000000
vn 0.000000 0.000000 -1.000000
vn 0.000000 0.000000 -1.000000
vn 1.000000 0.000000 0.000000
vn 1.000000 0.000000 0.000000
vn 1.000000 0.000000 0.000000
vn 1.000000 0.000000 0.000000
vn -1.000000 0.000000 0.000000
vn -1.000000 0.000000 0.000000
vn -1.000000 0.000000 0.000000
vn -1.000000 0.000000 0.000000
vn -1.000000 0.000000 0.000000
vn -1.000000 0.000000 0.000000
vn -1.000000 0.000000 0.000000
vn -1.000000 0.000000 0.000000
vn 1.000000 0.000000 0.000000
vn 1.000000 0.000000 0.000000
vn 1.000000 0.000000 0.000000
vn 1.000000 0.000000 0.000000
vn -1.000000 0.000000 0.000000
vn -1.000000 0.000000 0.000000
vn -1.000000 0.000000 0.000000
vn -1.000000 0.000000 0.000000
vn 0.000000 0.000000 1.000000
vn 0.000000 0.000000 1.000000
vn 0.000000 0.000000 1.000000
vn 0.000000 0.000000 1.000000
vn 1.000000 0.000000 0.000000
vn 1.000000 0.000000 0.000000
vn 1.000000 0.000000 0.000000
vn 1.000000 0.000000 0.000000
vn -1.000000 0.000000 0.000000
vn -1.000000 0.000000 0.000000
vn -1.000000 0.000000 0.000000
vn -1.000000 0.000000 0.000000
vn 0.000000 0.000000 -1.000000
vn 0.000000 0.000000 -1.000000
vn 0.000000 0.000000 -1.000000
vn 0.000000 0.000000 -1.000000
vn 1.000000 -0.000000 0.000000
vn 1.000000 -0.000000 0.000000
vn 1.000000 -0.000000 0.000000
vn 1.000000 -0.000000 0.000000
s off
g b3040
usemtl lambert3SG
f 1/1/1 2/2/2 3/3/3
f 2/2/4 4/4/5 3/3/6
f 3/3/7 5/5/8 6/6/9
f 3/3/10 7/7/11 8/8/12
f 8/8/13 9/9/14 3/3/15
f 3/3/16 9/9/17 10/10/18
f 11/11/19 12/12/20 3/3/21
f 3/3/22 12/12/23 13/13/24
f 3/3/25 14/14/26 15/15/27
f 16/16/28 17/17/29 3/3/30
f 17/18/31 18/19/32 19/20/33 1/21/34
f 16/22/35 20/23/36 18/19/37 17/18/38
f 15/24/39 21/25/40 20/23/41 16/22/42
f 14/26/43 22/27/44 21/25/45 15/24/46
f 13/28/47 23/29/48 22/27/49 14/26/50
f 12/30/51 24/31/52 23/29/53 13/28/54
f 11/32/55 25/33/56 24/31/57 12/30/58
f 10/34/59 26/35/60 25/33/61 11/32/62
f 9/36/63 27/37/64 26/38/65 10/39/66
f 8/40/67 28/41/68 27/37/69 9/36/70
f 7/42/71 29/43/72 28/41/73 8/40/74
f 6/44/75 30/45/76 29/43/77 7/42/78
f 5/46/79 31/47/80 30/45/81 6/44/82
f 4/48/83 32/49/84 31/47/85 5/46/86
f 2/50/87 33/51/88 32/49/89 4/48/90
f 1/21/91 19/20/92 33/51/93 2/50/94
f 3/3/95 15/15/96 16/16/97
f 3/3/98 6/6/99 7/7/100
f 3/3/101 10/10/102 11/11/103
f 1/1/104 3/3/105 17/17/106
f 3/3/107 13/13/108 14/14/109
f 3/3/110 4/4/111 5/5/112
s 1
f 64/52/113 65/53/114 62/54/115 60/55/116
f 60/55/116 62/54/115 58/56/117 56/57/118
f 56/57/118 58/56/117 54/58/119 52/59/120
f 52/60/120 54/61/119 50/62/121 48/63/122
f 48/63/122 50/62/121 46/64/123 44/65/124
f 44/65/124 46/64/123 42/66/125 40/67/126
f 40/67/126 42/66/125 39/68/127 38/69/128
f 38/69/128 39/68/127 35/70/129 34/71/130
f 34/71/130 35/70/129 37/72/131 36/73/132
f 36/73/132 37/72/131 43/74/133 41/75/134
f 41/75/134 43/74/133 47/76/135 45/77/136
f 45/77/136 47/76/135 51/78/137 49/79/138
f 49/79/138 51/78/137 55/80/139 53/81/140
f 53/81/140 55/80/139 59/82/141 57/83/142
f 57/83/142 59/82/141 63/84/143 61/85/144
f 61/85/144 63/84/143 65/53/114 64/52/113
s off
f 58/86/145 66/87/146 54/88/147
f 59/89/148 66/87/149 63/90/150
f 35/91/151 66/87/152 37/92/153
f 46/93/154 66/87/155 42/94/156
f 62/95/157 66/87/158 58/86/159
f 47/96/160 66/87/161 51/97/162
f 51/97/163 66/87/164 55/98/165
f 39/99/166 66/87/167 35/91/168
f 42/94/169 66/87/170 39/99/171
f 63/90/172 66/87/173 65/100/174
f 62/95/175 65/100/176 66/87/177
f 37/92/178 66/87/179 43/101/180
f 43/101/181 66/87/182 47/96/183
f 54/88/184 66/87/185 50/102/186
f 50/102/187 66/87/188 46/93/189
f 55/98/190 66/87/191 59/89/192
f 84/103/193 82/104/194 67/105/195 69/106/196
f 86/107/197 81/108/198 76/109/199 71/110/200
f 71/110/201 76/109/202 75/111/203 70/112/204
f 70/112/205 75/111/206 80/113/207 85/114/208
f 85/114/209 80/113/210 81/108/211 86/107/212
f 78/115/213 77/116/214 72/117/215 73/118/216
f 82/119/217 83/120/218 68/121/219 67/122/220
f 79/123/221 80/124/222 75/125/223 74/126/224
f 85/127/225 84/128/226 69/129/227 70/130/228
f 72/131/229 77/132/230 79/123/231 74/126/232
f 76/133/233 81/134/234 87/135/235 88/136/236
f 86/137/237 71/138/238 89/139/239 90/140/240
f 75/141/241 76/142/242 88/143/243 74/144/244
f 71/145/245 70/146/246 69/147/247 89/148/248
f 81/149/249 80/150/250 79/151/251 87/152/252
f 85/153/253 86/154/254 90/155/255 84/156/256
f 77/157/257 78/158/258 87/152/259 79/151/260
f 78/159/261 73/160/262 88/136/263 87/135/264
f 73/161/265 72/162/266 74/144/267 88/143/268
f 67/163/269 68/164/270 89/148/271 69/147/272
f 68/165/273 83/166/274 90/140/275 89/139/276
f 83/167/277 82/168/278 84/156/279 90/155/280
