# This file uses centimeters as units for non-parametric coordinates.

mtllib 3069.mtl
g default
v -0.399940 0.320002 0.400036
v -0.399940 0.320002 -0.399964
v -0.399940 0.040002 0.400036
v -0.399940 0.040002 -0.399964
v -0.359940 0.040002 0.360036
v -0.359940 0.040002 -0.359964
v -0.359940 0.000002 0.360036
v -0.359940 0.000002 -0.359964
v -0.239939 0.160002 0.240036
v -0.239939 0.160002 -0.239964
v -0.239939 0.000002 0.240036
v -0.239939 0.000002 -0.239964
v 1.040061 0.160002 0.240036
v 1.040061 0.160002 -0.239964
v 1.040061 0.000002 0.240036
v 1.040061 0.000002 -0.239964
v 1.160060 0.040002 0.360036
v 1.160060 0.040002 -0.359964
v 1.160060 0.000002 0.360036
v 1.160060 0.000002 -0.359964
v 1.200060 0.320002 0.400036
v 1.200060 0.320002 -0.399964
v 1.200060 0.040002 0.400036
v 1.200060 0.040002 -0.399964
vt 0.602632 0.317385
vt 0.924532 0.317350
vt 0.594043 0.677431
vt 0.915944 0.677396
vt 0.675474 0.500555
vt 0.543401 0.395737
vt 0.865301 0.395702
vt 0.109053 0.153413
vt 0.684062 0.153342
vt 0.551989 0.059483
vt 0.873889 0.059448
vt 0.100464 0.500626
vt 0.662822 0.588842
vt 0.581374 0.513214
vt 0.903274 0.513179
vt 0.096401 0.228867
vt 0.671410 0.228797
vt 0.589962 0.166001
vt 0.911862 0.165966
vt 0.087813 0.588913
vt 0.713428 0.345101
vt 0.138419 0.345171
vt 0.722017 0.008847
vt 0.147007 0.008917
vt 0.574232 0.771026
vt 0.551982 0.008861
vt 0.722023 0.088765
vt 0.979206 0.770970
vt 0.865294 0.345080
vt 0.147014 0.088835
vt 0.138426 0.429067
vt 0.873882 0.008826
vt 0.979227 0.922836
vt 0.713435 0.428997
vt 0.589960 0.126740
vt 0.684064 0.190940
vt 0.903273 0.466937
vt 0.109054 0.191010
vt 0.100466 0.548966
vt 0.911861 0.126705
vt 0.581372 0.466972
vt 0.675476 0.548896
vt 0.030936 0.717324
vt 0.924520 0.203562
vt 0.537190 0.970363
vt 0.030972 0.970433
vt 0.551989 0.088779
vt 0.722023 0.059469
vt 0.865301 0.428976
vt 0.147014 0.059539
vt 0.873889 0.088744
vt 0.138426 0.395793
vt 0.574253 0.922892
vt 0.543393 0.345115
vt 0.543401 0.429011
vt 0.713435 0.395723
vt 0.684062 0.126736
vt 0.589960 0.153346
vt 0.589962 0.190943
vt 0.684064 0.165998
vt 0.109053 0.126807
vt 0.903273 0.500524
vt 0.903274 0.548865
vt 0.109054 0.166068
vt 0.911862 0.190908
vt 0.100466 0.513281
vt 0.100464 0.467039
vt 0.911861 0.153311
vt 0.675474 0.466969
vt 0.581372 0.500559
vt 0.581374 0.548900
vt 0.675476 0.513211
vt 0.671410 0.203597
vt 0.602619 0.203597
vt 0.602619 0.228797
vt 0.671423 0.317385
vt 0.096401 0.203667
vt 0.915932 0.561518
vt 0.915932 0.588807
vt 0.096413 0.317456
vt 0.087825 0.677501
vt 0.087813 0.561624
vt 0.924520 0.228762
vt 0.662822 0.561554
vt 0.594031 0.561554
vt 0.594031 0.588842
vt 0.537155 0.717254
vt 0.662835 0.677431
vn 0.000000 1.000000 0.000000
vn 0.000000 1.000000 0.000000
vn 0.000000 1.000000 0.000000
vn 0.000000 1.000000 0.000000
vn 0.000000 -1.000000 0.000000
vn 0.000000 -1.000000 0.000000
vn 0.000000 -1.000000 0.000000
vn 0.000000 -1.000000 0.000000
vn 0.000000 -1.000000 0.000000
vn 0.000000 -1.000000 0.000000
vn 0.000000 -1.000000 0.000000
vn 0.000000 -1.000000 0.000000
vn 0.000000 -1.000000 0.000000
vn 0.000000 -1.000000 0.000000
vn 0.000000 -1.000000 0.000000
vn 0.000000 -1.000000 0.000000
vn 0.000000 -1.000000 -0.000000
vn 0.000000 -1.000000 -0.000000
vn 0.000000 -1.000000 -0.000000
vn 0.000000 -1.000000 -0.000000
vn 0.000000 -1.000000 0.000000
vn 0.000000 -1.000000 0.000000
vn 0.000000 -1.000000 0.000000
vn 0.000000 -1.000000 0.000000
vn 0.000000 -1.000000 0.000000
vn 0.000000 -1.000000 0.000000
vn 0.000000 -1.000000 0.000000
vn 0.000000 -1.000000 0.000000
vn 0.000000 -1.000000 0.000000
vn 0.000000 -1.000000 0.000000
vn 0.000000 -1.000000 0.000000
vn 0.000000 -1.000000 0.000000
vn 0.000000 -1.000000 -0.000000
vn 0.000000 -1.000000 -0.000000
vn 0.000000 -1.000000 -0.000000
vn 0.000000 -1.000000 -0.000000
vn 0.000000 0.000000 -1.000000
vn 0.000000 0.000000 -1.000000
vn 0.000000 0.000000 -1.000000
vn 0.000000 0.000000 -1.000000
vn -1.000000 0.000000 0.000000
vn -1.000000 0.000000 0.000000
vn -1.000000 0.000000 0.000000
vn -1.000000 0.000000 0.000000
vn 0.000000 0.000000 1.000000
vn 0.000000 0.000000 1.000000
vn 0.000000 0.000000 1.000000
vn 0.000000 0.000000 1.000000
vn 1.000000 0.000000 0.000000
vn 1.000000 0.000000 0.000000
vn 1.000000 0.000000 0.000000
vn 1.000000 0.000000 0.000000
vn 0.000000 0.000000 -1.000000
vn 0.000000 0.000000 -1.000000
vn 0.000000 0.000000 -1.000000
vn 0.000000 0.000000 -1.000000
vn -1.000000 0.000000 0.000000
vn -1.000000 0.000000 0.000000
vn -1.000000 0.000000 0.000000
vn -1.000000 0.000000 0.000000
vn 0.000000 0.000000 1.000000
vn 0.000000 0.000000 1.000000
vn 0.000000 0.000000 1.000000
vn 0.000000 0.000000 1.000000
vn 1.000000 0.000000 0.000000
vn 1.000000 0.000000 0.000000
vn 1.000000 0.000000 0.000000
vn 1.000000 0.000000 0.000000
vn 0.000000 -1.000000 0.000000
vn 0.000000 -1.000000 0.000000
vn 0.000000 -1.000000 0.000000
vn 0.000000 -1.000000 0.000000
vn 0.000000 0.000000 1.000000
vn 0.000000 0.000000 1.000000
vn 0.000000 0.000000 1.000000
vn 0.000000 0.000000 1.000000
vn 1.000000 0.000000 0.000000
vn 1.000000 0.000000 0.000000
vn 1.000000 0.000000 0.000000
vn 1.000000 0.000000 0.000000
vn 0.000000 0.000000 -1.000000
vn 0.000000 0.000000 -1.000000
vn 0.000000 0.000000 -1.000000
vn 0.000000 0.000000 -1.000000
vn -1.000000 0.000000 0.000000
vn -1.000000 0.000000 0.000000
vn -1.000000 0.000000 0.000000
vn -1.000000 0.000000 0.000000
s off
g b3069
usemtl lambert5SG
f 21/46/1 22/43/2 2/87/3 1/45/4
f 8/69/5 12/34/6 11/49/7 7/37/8
f 19/57/9 15/27/10 16/51/11 20/40/12
f 20/67/13 16/31/14 12/55/15 8/41/16
f 7/61/17 11/30/18 15/47/19 19/35/20
f 4/84/21 6/42/22 5/63/23 3/78/24
f 23/73/25 17/36/26 18/65/27 24/44/28
f 24/82/29 18/39/30 6/71/31 4/85/32
f 3/77/33 5/38/34 17/59/35 23/74/36
f 4/86/37 2/3/38 22/81/39 24/20/40
f 3/79/41 1/4/42 2/88/43 4/13/44
f 23/75/45 21/1/46 1/80/47 3/16/48
f 24/83/49 22/2/50 21/76/51 23/17/52
f 8/70/53 6/14/54 18/66/55 20/12/56
f 7/62/57 5/15/58 6/72/59 8/5/60
f 19/58/61 17/18/62 5/64/63 7/8/64
f 20/68/65 18/19/66 17/60/67 19/9/68
f 10/33/69 14/53/70 13/25/71 9/28/72
f 10/54/73 12/6/74 16/52/75 14/22/76
f 9/29/77 11/7/78 12/56/79 10/21/80
f 13/26/81 15/10/82 11/50/83 9/24/84
f 14/32/85 16/11/86 15/48/87 13/23/88
