# This file uses centimeters as units for non-parametric coordinates.

mtllib 3070.mtl
g default
v -0.399939 0.320002 0.400037
v -0.399939 0.320002 -0.399963
v -0.399939 0.040002 0.400037
v -0.399939 0.040002 -0.399963
v -0.359939 0.040002 0.360037
v -0.359939 0.040002 -0.359963
v -0.359939 0.000002 0.360037
v -0.359939 0.000002 -0.359963
v -0.239938 0.160002 0.240037
v -0.239938 0.160002 -0.239963
v -0.239938 0.000002 0.240037
v -0.239938 0.000002 -0.239963
v 0.240061 0.160002 0.240037
v 0.240061 0.160002 -0.239963
v 0.240061 0.000002 0.240037
v 0.240061 0.000002 -0.239963
v 0.360062 0.040002 0.360037
v 0.360062 0.040002 -0.359963
v 0.360062 0.000002 0.360037
v 0.360062 0.000002 -0.359963
v 0.400062 0.320002 0.400037
v 0.400062 0.320002 -0.399963
v 0.400062 0.040002 0.400037
v 0.400062 0.040002 -0.399963
vt 0.955791 0.943356
vt 0.080454 0.735880
vt 0.599513 0.946123
vt 0.080850 0.374626
vt 0.653081 0.717319
vt 0.518326 0.310799
vt 0.891964 0.573076
vt 0.621897 0.471165
vt 0.227159 0.639003
vt 0.296803 0.713366
vt 0.535686 0.564644
vt 0.342726 0.071916
vt 0.637173 0.832058
vt 0.326973 0.358620
vt 0.939786 0.733071
vt 0.191752 0.417263
vt 0.335193 0.455412
vt 0.280895 0.834826
vt 0.583508 0.729119
vt 0.192148 0.056008
vt 0.290752 0.447834
vt 0.700796 0.509483
vt 0.581919 0.119630
vt 0.344518 0.501051
vt 0.583498 0.663914
vt 0.259602 0.071926
vt 0.991436 0.466178
vt 0.296813 0.783051
vt 0.653091 0.787003
vt 0.421296 0.358611
vt 0.939776 0.667866
vt 0.621888 0.428359
vt 0.244885 0.776606
vt 0.535647 0.500934
vt 0.468933 0.119669
vt 0.245002 0.967736
vt 0.344557 0.616278
vt 0.700835 0.620230
vt 0.053755 0.776723
vt 0.582036 0.310760
vt 0.891925 0.509366
vt 0.752494 0.418542
vt 0.955723 0.802745
vt 0.659995 0.045565
vt 0.660190 0.364115
vt 0.978740 0.363920
vt 0.421121 0.071916
vt 0.583498 0.713191
vt 0.583508 0.782875
vt 0.326798 0.071926
vt 0.296803 0.664089
vt 0.335203 0.471340
vt 0.335193 0.428534
vt 0.296813 0.729294
vt 0.259777 0.358620
vt 0.653091 0.733246
vt 0.653081 0.668041
vt 0.342901 0.358611
vt 0.704741 0.466354
vt 0.939776 0.717144
vt 0.939786 0.786827
vt 0.621888 0.455237
vt 0.535686 0.616161
vt 0.518209 0.119669
vt 0.290869 0.638964
vt 0.943624 0.418425
vt 0.344557 0.564761
vt 0.469049 0.310799
vt 0.700835 0.573193
vt 0.053872 0.967852
vt 0.891964 0.620113
vt 0.227042 0.447873
vt 0.243665 0.056008
vt 0.599445 0.798793
vt 0.599445 0.834631
vt 0.080656 0.056076
vt 0.280895 0.798988
vt 0.319256 0.412616
vt 0.191947 0.735812
vt 0.978545 0.045370
vt 0.280963 0.946318
vt 0.637241 0.943551
vt 0.637173 0.802940
vt 0.243859 0.374558
vt 0.192343 0.374558
vt 0.637805 0.412422
vt 0.955723 0.831864
vt 0.080260 0.417331
vn 0.000000 1.000000 0.000000
vn 0.000000 1.000000 0.000000
vn 0.000000 1.000000 0.000000
vn 0.000000 1.000000 0.000000
vn 0.000000 -1.000000 0.000000
vn 0.000000 -1.000000 0.000000
vn 0.000000 -1.000000 0.000000
vn 0.000000 -1.000000 0.000000
vn 0.000000 -1.000000 0.000000
vn 0.000000 -1.000000 0.000000
vn 0.000000 -1.000000 0.000000
vn 0.000000 -1.000000 0.000000
vn 0.000000 -1.000000 0.000000
vn 0.000000 -1.000000 0.000000
vn 0.000000 -1.000000 0.000000
vn 0.000000 -1.000000 0.000000
vn 0.000000 -1.000000 0.000000
vn 0.000000 -1.000000 0.000000
vn 0.000000 -1.000000 0.000000
vn 0.000000 -1.000000 0.000000
vn 0.000000 -1.000000 0.000000
vn 0.000000 -1.000000 0.000000
vn 0.000000 -1.000000 0.000000
vn 0.000000 -1.000000 0.000000
vn 0.000000 -1.000000 0.000000
vn 0.000000 -1.000000 0.000000
vn 0.000000 -1.000000 0.000000
vn 0.000000 -1.000000 0.000000
vn 0.000000 -1.000000 0.000000
vn 0.000000 -1.000000 0.000000
vn 0.000000 -1.000000 0.000000
vn 0.000000 -1.000000 0.000000
vn 0.000000 -1.000000 0.000000
vn 0.000000 -1.000000 0.000000
vn 0.000000 -1.000000 0.000000
vn 0.000000 -1.000000 0.000000
vn 0.000000 0.000000 -1.000000
vn 0.000000 0.000000 -1.000000
vn 0.000000 0.000000 -1.000000
vn 0.000000 0.000000 -1.000000
vn -1.000000 0.000000 0.000000
vn -1.000000 0.000000 0.000000
vn -1.000000 0.000000 0.000000
vn -1.000000 0.000000 0.000000
vn 0.000000 0.000000 1.000000
vn 0.000000 0.000000 1.000000
vn 0.000000 0.000000 1.000000
vn 0.000000 0.000000 1.000000
vn 1.000000 0.000000 0.000000
vn 1.000000 0.000000 0.000000
vn 1.000000 0.000000 0.000000
vn 1.000000 0.000000 0.000000
vn 0.000000 -1.000000 0.000000
vn 0.000000 -1.000000 0.000000
vn 0.000000 -1.000000 0.000000
vn 0.000000 -1.000000 0.000000
vn 0.000000 0.000000 1.000000
vn 0.000000 0.000000 1.000000
vn 0.000000 0.000000 1.000000
vn 0.000000 0.000000 1.000000
vn 1.000000 0.000000 0.000000
vn 1.000000 0.000000 0.000000
vn 1.000000 0.000000 0.000000
vn 1.000000 0.000000 0.000000
vn 0.000000 0.000000 -1.000000
vn 0.000000 0.000000 -1.000000
vn 0.000000 0.000000 -1.000000
vn 0.000000 0.000000 -1.000000
vn -1.000000 0.000000 0.000000
vn -1.000000 0.000000 0.000000
vn -1.000000 0.000000 0.000000
vn -1.000000 0.000000 0.000000
vn 0.000000 0.000000 -1.000000
vn 0.000000 0.000000 -1.000000
vn 0.000000 0.000000 -1.000000
vn 0.000000 0.000000 -1.000000
vn -1.000000 0.000000 0.000000
vn -1.000000 0.000000 0.000000
vn -1.000000 0.000000 0.000000
vn -1.000000 0.000000 0.000000
vn 0.000000 0.000000 1.000000
vn 0.000000 0.000000 1.000000
vn 0.000000 0.000000 1.000000
vn 0.000000 0.000000 1.000000
vn 1.000000 0.000000 0.000000
vn 1.000000 0.000000 0.000000
vn 1.000000 0.000000 0.000000
vn 1.000000 0.000000 0.000000
s off
g b3070
usemtl lambert4SG
f 2/44/1 1/80/2 21/46/3 22/45/4
f 20/57/5 16/38/6 12/71/7 8/31/8
f 8/59/9 12/42/10 11/66/11 7/27/12
f 7/51/13 11/37/14 15/63/15 19/25/16
f 19/47/17 15/35/18 16/68/19 20/30/20
f 24/83/21 18/29/22 6/61/23 4/43/24
f 4/86/25 6/32/26 5/53/27 3/78/28
f 3/77/29 5/28/30 17/49/31 23/74/32
f 23/73/33 17/26/34 18/55/35 24/84/36
f 4/87/37 2/1/38 22/82/39 24/13/40
f 3/79/41 1/2/42 2/88/43 4/16/44
f 23/75/45 21/3/46 1/81/47 3/18/48
f 24/85/49 22/4/50 21/76/51 23/20/52
f 10/70/53 14/39/54 13/33/55 9/36/56
f 10/41/57 12/7/58 16/69/59 14/22/60
f 9/65/61 11/9/62 12/72/63 10/21/64
f 13/34/65 15/11/66 11/67/67 9/24/68
f 14/40/69 16/6/70 15/64/71 13/23/72
f 8/60/73 6/15/74 18/56/75 20/5/76
f 7/52/77 5/17/78 6/62/79 8/8/80
f 19/48/81 17/19/82 5/54/83 7/10/84
f 20/58/85 18/14/86 17/50/87 19/12/88
